<svg xmlns="http://www.w3.org/2000/svg" xmlns:xlink="http://www.w3.org/1999/xlink" width="359" zoomAndPan="magnify" viewBox="0 0 269.25 179.999997" height="240" preserveAspectRatio="xMidYMid meet" version="1.0"><defs><g/><clipPath id="a4ca03ce52"><rect x="0" width="209" y="0" height="138"/></clipPath></defs><g transform="matrix(1, 0, 0, 1, 33, 21)"><g clip-path="url(#a4ca03ce52)"><g fill="#4a1f5c" fill-opacity="1"><g transform="translate(15.043601, 96.72026)"><g><path d="M 91.484375 -75.984375 C 92.316406 -76.109375 93.144531 -76.09375 93.96875 -75.9375 C 94.800781 -75.78125 95.5625 -75.492188 96.25 -75.078125 C 96.945312 -74.671875 97.535156 -74.125 98.015625 -73.4375 C 98.492188 -72.757812 98.800781 -71.957031 98.9375 -71.03125 C 99.195312 -69.25 98.921875 -67.140625 98.109375 -64.703125 C 97.296875 -62.265625 96.191406 -59.382812 94.796875 -56.0625 C 93.273438 -52.519531 91.875 -49.003906 90.59375 -45.515625 C 89.3125 -42.023438 88.132812 -38.664062 87.0625 -35.4375 C 85.988281 -32.207031 85.019531 -29.171875 84.15625 -26.328125 C 83.300781 -23.484375 82.5625 -20.945312 81.9375 -18.71875 C 83.113281 -18.738281 84.28125 -18.785156 85.4375 -18.859375 C 86.601562 -18.941406 87.644531 -19.066406 88.5625 -19.234375 L 88.96875 -17 C 88.769531 -16.96875 88.015625 -16.863281 86.703125 -16.6875 C 85.398438 -16.507812 83.597656 -16.421875 81.296875 -16.421875 C 80.710938 -14.210938 80.265625 -12.492188 79.953125 -11.265625 C 79.648438 -10.046875 79.503906 -9.410156 79.515625 -9.359375 L 74.15625 -10.203125 L 75.875 -16.484375 C 73.882812 -16.640625 71.78125 -16.851562 69.5625 -17.125 C 67.351562 -17.394531 65.09375 -17.734375 62.78125 -18.140625 C 60.476562 -18.546875 58.164062 -19.050781 55.84375 -19.65625 C 53.519531 -20.257812 51.273438 -20.957031 49.109375 -21.75 C 47.546875 -19.320312 45.820312 -16.90625 43.9375 -14.5 C 42.0625 -12.101562 39.992188 -9.894531 37.734375 -7.875 C 35.472656 -5.851562 33.007812 -4.125 30.34375 -2.6875 C 27.6875 -1.257812 24.804688 -0.316406 21.703125 0.140625 C 18.929688 0.535156 16.113281 0.519531 13.25 0.09375 C 10.382812 -0.320312 7.75 -1.148438 5.34375 -2.390625 C 2.945312 -3.640625 0.910156 -5.296875 -0.765625 -7.359375 C -2.453125 -9.421875 -3.503906 -11.890625 -3.921875 -14.765625 C -4.253906 -17.035156 -4.125 -19.097656 -3.53125 -20.953125 C -2.9375 -22.804688 -1.976562 -24.414062 -0.65625 -25.78125 C 0.65625 -27.144531 2.269531 -28.265625 4.1875 -29.140625 C 6.101562 -30.023438 8.210938 -30.640625 10.515625 -30.984375 C 12.265625 -31.234375 14.101562 -31.320312 16.03125 -31.25 C 17.96875 -31.1875 19.890625 -30.878906 21.796875 -30.328125 C 23.703125 -29.785156 25.539062 -28.96875 27.3125 -27.875 C 29.09375 -26.78125 30.679688 -25.335938 32.078125 -23.546875 L 30.375 -22.0625 C 30.332031 -22.113281 30.128906 -22.3125 29.765625 -22.65625 C 29.410156 -23 28.894531 -23.40625 28.21875 -23.875 C 27.550781 -24.351562 26.710938 -24.84375 25.703125 -25.34375 C 24.691406 -25.84375 23.503906 -26.265625 22.140625 -26.609375 C 20.785156 -26.960938 19.238281 -27.191406 17.5 -27.296875 C 15.769531 -27.410156 13.84375 -27.3125 11.71875 -27 C 9.5625 -26.6875 7.726562 -26.046875 6.21875 -25.078125 C 4.707031 -24.117188 3.492188 -22.988281 2.578125 -21.6875 C 1.671875 -20.394531 1.050781 -19.003906 0.71875 -17.515625 C 0.382812 -16.035156 0.316406 -14.628906 0.515625 -13.296875 C 0.742188 -11.753906 1.222656 -10.378906 1.953125 -9.171875 C 2.691406 -7.960938 3.601562 -6.910156 4.6875 -6.015625 C 5.78125 -5.117188 7.007812 -4.378906 8.375 -3.796875 C 9.738281 -3.210938 11.15625 -2.765625 12.625 -2.453125 C 14.09375 -2.140625 15.570312 -1.960938 17.0625 -1.921875 C 18.550781 -1.878906 19.988281 -1.957031 21.375 -2.15625 C 24.226562 -2.570312 26.894531 -3.4375 29.375 -4.75 C 31.851562 -6.070312 34.144531 -7.671875 36.25 -9.546875 C 38.351562 -11.429688 40.289062 -13.5 42.0625 -15.75 C 43.832031 -18.007812 45.453125 -20.289062 46.921875 -22.59375 C 44.785156 -23.476562 42.789062 -24.484375 40.9375 -25.609375 C 39.082031 -26.742188 37.429688 -28.003906 35.984375 -29.390625 C 34.546875 -30.773438 33.359375 -32.316406 32.421875 -34.015625 C 31.492188 -35.722656 30.882812 -37.585938 30.59375 -39.609375 C 30.34375 -41.273438 30.421875 -42.882812 30.828125 -44.4375 C 31.234375 -45.988281 31.890625 -47.394531 32.796875 -48.65625 C 33.710938 -49.925781 34.863281 -50.992188 36.25 -51.859375 C 37.644531 -52.722656 39.195312 -53.28125 40.90625 -53.53125 C 42.800781 -53.800781 44.632812 -53.769531 46.40625 -53.4375 C 48.1875 -53.101562 49.914062 -52.535156 51.59375 -51.734375 C 53.269531 -50.929688 54.878906 -49.921875 56.421875 -48.703125 C 57.972656 -47.492188 59.453125 -46.15625 60.859375 -44.6875 C 63.566406 -48.757812 66.289062 -52.617188 69.03125 -56.265625 C 71.769531 -59.910156 74.445312 -63.140625 77.0625 -65.953125 C 79.675781 -68.773438 82.195312 -71.078125 84.625 -72.859375 C 87.0625 -74.640625 89.347656 -75.679688 91.484375 -75.984375 Z M 62.5 -42.890625 C 64.15625 -41.015625 65.707031 -39.050781 67.15625 -37 C 68.601562 -34.945312 69.9375 -32.921875 71.15625 -30.921875 C 72.375 -28.929688 73.472656 -27.03125 74.453125 -25.21875 C 75.429688 -23.40625 76.289062 -21.804688 77.03125 -20.421875 C 79.3125 -28.234375 81.851562 -35.941406 84.65625 -43.546875 C 87.46875 -51.160156 90.753906 -58.753906 94.515625 -66.328125 C 95.117188 -67.597656 95.53125 -68.640625 95.75 -69.453125 C 95.976562 -70.265625 96.050781 -70.945312 95.96875 -71.5 C 95.832031 -72.414062 95.34375 -73.054688 94.5 -73.421875 C 93.65625 -73.785156 92.726562 -73.894531 91.71875 -73.75 C 88.519531 -73.28125 84.484375 -70.460938 79.609375 -65.296875 C 74.734375 -60.128906 69.03125 -52.660156 62.5 -42.890625 Z M 34.8125 -38.09375 C 35.03125 -36.570312 35.53125 -35.171875 36.3125 -33.890625 C 37.09375 -32.609375 38.078125 -31.414062 39.265625 -30.3125 C 40.453125 -29.207031 41.816406 -28.195312 43.359375 -27.28125 C 44.898438 -26.375 46.539062 -25.550781 48.28125 -24.8125 C 50.070312 -27.75 51.894531 -30.703125 53.75 -33.671875 C 55.613281 -36.648438 57.503906 -39.601562 59.421875 -42.53125 C 58.222656 -43.695312 57 -44.769531 55.75 -45.75 C 54.507812 -46.738281 53.238281 -47.5625 51.9375 -48.21875 C 50.632812 -48.882812 49.316406 -49.351562 47.984375 -49.625 C 46.660156 -49.90625 45.320312 -49.945312 43.96875 -49.75 C 42.4375 -49.519531 41.0625 -49.050781 39.84375 -48.34375 C 38.625 -47.644531 37.601562 -46.769531 36.78125 -45.71875 C 35.957031 -44.675781 35.367188 -43.503906 35.015625 -42.203125 C 34.671875 -40.898438 34.601562 -39.53125 34.8125 -38.09375 Z M 75.3125 -18.890625 C 74.726562 -20.117188 73.957031 -21.609375 73 -23.359375 C 72.050781 -25.109375 70.972656 -26.96875 69.765625 -28.9375 C 68.554688 -30.914062 67.21875 -32.929688 65.75 -34.984375 C 64.289062 -37.035156 62.734375 -38.96875 61.078125 -40.78125 C 59.421875 -38.257812 57.707031 -35.601562 55.9375 -32.8125 C 54.175781 -30.019531 52.347656 -27.066406 50.453125 -23.953125 C 52.628906 -23.117188 54.882812 -22.410156 57.21875 -21.828125 C 59.550781 -21.242188 61.8125 -20.75 64 -20.34375 C 66.1875 -19.9375 68.265625 -19.613281 70.234375 -19.375 C 72.203125 -19.132812 73.894531 -18.972656 75.3125 -18.890625 Z M 75.3125 -18.890625 "/></g></g></g><g fill="#4a1f5c" fill-opacity="1"><g transform="translate(103.523937, 85.60191)"><g><path d="M 31.5625 -28.84375 C 24.351562 -16.175781 20.75 -7.910156 20.75 -4.046875 C 20.75 -2.523438 21.304688 -1.765625 22.421875 -1.765625 C 25.410156 -1.765625 29.425781 -6.832031 34.46875 -16.96875 C 34.820312 -17.789062 35.171875 -18.113281 35.515625 -17.9375 C 35.867188 -17.757812 36.046875 -17.523438 36.046875 -17.234375 C 36.046875 -16.941406 35.929688 -16.59375 35.703125 -16.1875 C 32.597656 -9.90625 29.972656 -5.578125 27.828125 -3.203125 C 25.691406 -0.828125 23.550781 0.359375 21.40625 0.359375 C 19.269531 0.359375 17.644531 -0.460938 16.53125 -2.109375 C 15.945312 -2.867188 15.65625 -3.90625 15.65625 -5.21875 C 15.65625 -6.539062 15.945312 -8.140625 16.53125 -10.015625 C 17.113281 -11.898438 18.726562 -14.953125 21.375 -19.171875 C 22.019531 -20.222656 22.34375 -21.054688 22.34375 -21.671875 C 22.34375 -22.285156 21.84375 -22.59375 20.84375 -22.59375 C 19.84375 -22.59375 17.9375 -21.273438 15.125 -18.640625 C 10.90625 -14.773438 6.832031 -8.972656 2.90625 -1.234375 C 2.550781 -0.648438 2.15625 -0.28125 1.71875 -0.125 C 1.28125 0.0195312 0.414062 0.117188 -0.875 0.171875 C -2.164062 0.234375 -3.015625 0.378906 -3.421875 0.609375 C -2.484375 -1.265625 -0.640625 -5.101562 2.109375 -10.90625 C 7.035156 -21.164062 10.257812 -27.023438 11.78125 -28.484375 C 12.488281 -29.191406 13.457031 -29.546875 14.6875 -29.546875 C 14.914062 -29.546875 15.515625 -29.457031 16.484375 -29.28125 C 17.453125 -29.101562 18.171875 -29.070312 18.640625 -29.1875 C 16.472656 -28.019531 12.925781 -22.507812 8 -12.65625 C 10.757812 -16.0625 13.265625 -18.773438 15.515625 -20.796875 C 17.773438 -22.816406 20.488281 -24.691406 23.65625 -26.421875 C 26.820312 -28.148438 29.140625 -29.015625 30.609375 -29.015625 C 30.953125 -29.015625 31.269531 -28.957031 31.5625 -28.84375 Z M 31.5625 -28.84375 "/></g></g></g><g fill="#4a1f5c" fill-opacity="1"><g transform="translate(132.980826, 85.60191)"><g><path d="M 23.5625 -5.09375 C 23.5625 -3.21875 24.328125 -2.28125 25.859375 -2.28125 C 28.609375 -2.28125 32.269531 -6.882812 36.84375 -16.09375 C 37.019531 -16.445312 37.179688 -16.796875 37.328125 -17.140625 C 37.472656 -17.492188 37.707031 -17.726562 38.03125 -17.84375 C 38.351562 -17.96875 38.570312 -17.894531 38.6875 -17.625 C 38.8125 -17.363281 38.753906 -16.941406 38.515625 -16.359375 C 33.828125 -5.453125 29.078125 0 24.265625 0 C 22.679688 0 21.421875 -0.703125 20.484375 -2.109375 C 19.546875 -3.515625 19.078125 -4.90625 19.078125 -6.28125 C 19.078125 -7.664062 19.222656 -8.941406 19.515625 -10.109375 C 16.117188 -4.484375 13.191406 -1.289062 10.734375 -0.53125 C 10.023438 -0.238281 9.332031 -0.09375 8.65625 -0.09375 C 7.988281 -0.09375 7.332031 -0.179688 6.6875 -0.359375 C 3.8125 -1.117188 2.375 -3.398438 2.375 -7.203125 C 2.375 -9.785156 3.03125 -12.644531 4.34375 -15.78125 C 5.664062 -18.914062 7.53125 -21.921875 9.9375 -24.796875 C 12.34375 -27.671875 15.242188 -29.609375 18.640625 -30.609375 C 19.867188 -31.015625 21.316406 -31.21875 22.984375 -31.21875 C 24.660156 -31.21875 26.523438 -30.691406 28.578125 -29.640625 C 32.566406 -37.140625 35.96875 -44.082031 38.78125 -50.46875 C 39.601562 -52.40625 40.410156 -53.648438 41.203125 -54.203125 C 41.992188 -54.765625 42.722656 -55.046875 43.390625 -55.046875 C 44.066406 -55.046875 44.476562 -55.046875 44.625 -55.046875 C 44.769531 -55.046875 45.328125 -54.972656 46.296875 -54.828125 C 47.265625 -54.679688 48.015625 -54.640625 48.546875 -54.703125 C 47.191406 -53.460938 43.613281 -47.484375 37.8125 -36.765625 C 30.425781 -23.046875 25.972656 -13.898438 24.453125 -9.328125 C 23.859375 -7.617188 23.5625 -6.207031 23.5625 -5.09375 Z M 27.875 -28.234375 C 27.113281 -28.992188 26.039062 -29.375 24.65625 -29.375 C 23.28125 -29.375 21.363281 -28.347656 18.90625 -26.296875 C 14.976562 -23.015625 11.722656 -18.96875 9.140625 -14.15625 C 7.441406 -10.988281 6.59375 -8.378906 6.59375 -6.328125 C 6.59375 -5.390625 6.78125 -4.539062 7.15625 -3.78125 C 7.539062 -3.019531 8.144531 -2.640625 8.96875 -2.640625 C 10.957031 -2.640625 13.414062 -4.691406 16.34375 -8.796875 C 19.28125 -12.898438 23.125 -19.378906 27.875 -28.234375 Z M 27.875 -28.234375 "/></g></g></g><g fill="#4a1f5c" fill-opacity="1"><g transform="translate(165.251508, 85.60191)"><g><path d="M -7.109375 27.78125 C -9.691406 27.78125 -11.6875 27.238281 -13.09375 26.15625 C -14.5 25.070312 -15.203125 23.769531 -15.203125 22.25 C -15.203125 20.726562 -14.765625 19 -13.890625 17.0625 C -12.367188 14.070312 -9.613281 11.664062 -5.625 9.84375 C -2.632812 8.4375 1.320312 7.132812 6.25 5.9375 C 11.175781 4.738281 14.34375 3.929688 15.75 3.515625 C 17.851562 -0.171875 20.375 -6.765625 23.3125 -16.265625 C 19.90625 -10.285156 17.054688 -6.09375 14.765625 -3.6875 C 12.484375 -1.289062 10.171875 -0.09375 7.828125 -0.09375 C 4.660156 -0.09375 2.816406 -1.410156 2.296875 -4.046875 C 2.054688 -4.453125 1.992188 -5.066406 2.109375 -5.890625 C 2.234375 -6.710938 2.304688 -7.296875 2.328125 -7.640625 C 2.359375 -7.992188 2.550781 -8.566406 2.90625 -9.359375 C 3.257812 -10.148438 3.492188 -10.722656 3.609375 -11.078125 C 4.253906 -12.429688 4.8125 -13.488281 5.28125 -14.25 C 4.34375 -14.25 4.078125 -14.71875 4.484375 -15.65625 L 6.078125 -18.734375 C 8.066406 -22.546875 9.707031 -25.769531 11 -28.40625 C 11.582031 -29.632812 12.722656 -30.25 14.421875 -30.25 L 19.796875 -30.25 C 19.671875 -30.132812 19.375 -29.898438 18.90625 -29.546875 C 17.851562 -28.835938 17.0625 -28.015625 16.53125 -27.078125 C 14.425781 -23.441406 11.789062 -18.253906 8.625 -11.515625 C 7.332031 -8.765625 6.6875 -6.742188 6.6875 -5.453125 C 6.6875 -4.160156 6.90625 -3.25 7.34375 -2.71875 C 7.789062 -2.195312 8.394531 -1.9375 9.15625 -1.9375 C 10.269531 -1.9375 11.820312 -3.109375 13.8125 -5.453125 C 17.976562 -10.316406 22.582031 -17.96875 27.625 -28.40625 C 28.257812 -29.632812 29.398438 -30.25 31.046875 -30.25 L 35.796875 -30.25 C 34.273438 -29.195312 33.070312 -27.863281 32.1875 -26.25 C 31.3125 -24.632812 30.359375 -22.445312 29.328125 -19.6875 C 28.304688 -16.9375 27.019531 -13.273438 25.46875 -8.703125 C 23.914062 -4.128906 22.726562 -0.703125 21.90625 1.578125 C 27.414062 -0.0546875 31.632812 -2.957031 34.5625 -7.125 C 35.851562 -8.9375 37.703125 -12.160156 40.109375 -16.796875 C 40.515625 -17.617188 40.878906 -17.941406 41.203125 -17.765625 C 41.523438 -17.585938 41.6875 -17.351562 41.6875 -17.0625 C 41.6875 -16.769531 41.203125 -15.640625 40.234375 -13.671875 C 39.265625 -11.710938 38.28125 -9.894531 37.28125 -8.21875 C 36.289062 -6.550781 35.003906 -4.835938 33.421875 -3.078125 C 31.835938 -1.316406 30.078125 0.0703125 28.140625 1.09375 C 26.210938 2.125 23.632812 3.222656 20.40625 4.390625 C 15.894531 12.597656 11.351562 18.640625 6.78125 22.515625 C 2.5 26.023438 -2.128906 27.78125 -7.109375 27.78125 Z M -12.21875 19.078125 C -12.863281 20.367188 -13.1875 21.554688 -13.1875 22.640625 C -13.1875 23.722656 -12.773438 24.554688 -11.953125 25.140625 C -11.128906 25.734375 -10.101562 26.03125 -8.875 26.03125 C -5.476562 26.03125 -1.847656 24.285156 2.015625 20.796875 C 5.890625 17.304688 9.296875 13.566406 12.234375 9.578125 L 14.15625 6.328125 C 4.488281 8.847656 -1.601562 10.664062 -4.125 11.78125 C -7.875 13.425781 -10.570312 15.859375 -12.21875 19.078125 Z M -12.21875 19.078125 "/></g></g></g></g></g></svg>