<svg xmlns="http://www.w3.org/2000/svg" xmlns:xlink="http://www.w3.org/1999/xlink" width="857" zoomAndPan="magnify" viewBox="0 0 642.75 85.499998" height="114" preserveAspectRatio="xMidYMid meet" version="1.0"><defs><g/></defs><g fill="#4a1f5c" fill-opacity="1"><g transform="translate(266.441551, 70.835751)"><g><path d="M 7.8125 -9.0625 L 7.8125 -5.234375 C 6.570312 -4.804688 5.632812 -4.320312 5 -3.78125 C 4.363281 -3.238281 3.9375 -2.648438 3.71875 -2.015625 C 3.507812 -1.390625 3.40625 -0.726562 3.40625 -0.03125 C 3.40625 1.65625 3.769531 2.875 4.5 3.625 C 5.238281 4.382812 6.191406 4.765625 7.359375 4.765625 C 7.816406 4.765625 8.3125 4.710938 8.84375 4.609375 C 9.382812 4.515625 9.816406 4.316406 10.140625 4.015625 C 9.785156 3.941406 9.5 3.785156 9.28125 3.546875 C 9.0625 3.316406 8.953125 2.992188 8.953125 2.578125 C 8.953125 2.085938 9.109375 1.707031 9.421875 1.4375 C 9.734375 1.175781 10.097656 1.046875 10.515625 1.046875 C 10.941406 1.046875 11.296875 1.1875 11.578125 1.46875 C 11.867188 1.75 12.015625 2.109375 12.015625 2.546875 C 12.015625 2.941406 11.894531 3.304688 11.65625 3.640625 C 11.414062 3.972656 11.09375 4.257812 10.6875 4.5 C 10.300781 4.726562 9.796875 4.921875 9.171875 5.078125 C 8.554688 5.242188 7.773438 5.328125 6.828125 5.328125 C 5.660156 5.328125 4.625 5.132812 3.71875 4.75 C 2.820312 4.363281 2.125 3.8125 1.625 3.09375 C 1.125 2.375 0.875 1.515625 0.875 0.515625 C 0.875 -0.503906 1.144531 -1.410156 1.6875 -2.203125 C 2.226562 -3.003906 2.972656 -3.679688 3.921875 -4.234375 C 4.878906 -4.796875 5.988281 -5.21875 7.25 -5.5 L 7.25 -9.0625 Z M 7.5 -15.015625 C 8 -15.015625 8.425781 -14.832031 8.78125 -14.46875 C 9.132812 -14.113281 9.3125 -13.691406 9.3125 -13.203125 C 9.3125 -12.710938 9.132812 -12.285156 8.78125 -11.921875 C 8.425781 -11.566406 8 -11.390625 7.5 -11.390625 C 7.007812 -11.390625 6.582031 -11.566406 6.21875 -11.921875 C 5.863281 -12.285156 5.6875 -12.710938 5.6875 -13.203125 C 5.6875 -13.691406 5.863281 -14.113281 6.21875 -14.46875 C 6.582031 -14.832031 7.007812 -15.015625 7.5 -15.015625 Z M 7.5 -15.015625 "/></g></g></g><g fill="#4a1f5c" fill-opacity="1"><g transform="translate(279.277027, 70.835751)"><g><path d="M 8.921875 -20.0625 C 12.304688 -20.0625 14.816406 -19.210938 16.453125 -17.515625 C 18.097656 -15.828125 18.921875 -13.40625 18.921875 -10.25 C 18.921875 -8.195312 18.519531 -6.398438 17.71875 -4.859375 C 16.914062 -3.316406 15.75 -2.117188 14.21875 -1.265625 C 12.6875 -0.421875 10.835938 0 8.671875 0 C 8.390625 0 8.007812 -0.0078125 7.53125 -0.03125 C 7.0625 -0.0507812 6.578125 -0.0625 6.078125 -0.0625 C 5.578125 -0.0703125 5.117188 -0.078125 4.703125 -0.078125 C 4.046875 -0.078125 3.394531 -0.0703125 2.75 -0.0625 C 2.101562 -0.0625 1.582031 -0.0390625 1.1875 0 L 1.1875 -0.5625 C 1.832031 -0.601562 2.316406 -0.679688 2.640625 -0.796875 C 2.972656 -0.910156 3.195312 -1.132812 3.3125 -1.46875 C 3.425781 -1.8125 3.484375 -2.320312 3.484375 -3 L 3.484375 -17.046875 C 3.484375 -17.753906 3.425781 -18.269531 3.3125 -18.59375 C 3.195312 -18.925781 2.972656 -19.15625 2.640625 -19.28125 C 2.316406 -19.40625 1.832031 -19.472656 1.1875 -19.484375 L 1.1875 -20.0625 C 1.582031 -20.039062 2.101562 -20.015625 2.75 -19.984375 C 3.394531 -19.953125 4.023438 -19.945312 4.640625 -19.96875 C 5.304688 -19.988281 6.050781 -20.007812 6.875 -20.03125 C 7.707031 -20.050781 8.390625 -20.0625 8.921875 -20.0625 Z M 8.21875 -19.546875 C 7.34375 -19.546875 6.773438 -19.382812 6.515625 -19.0625 C 6.253906 -18.738281 6.125 -18.085938 6.125 -17.109375 L 6.125 -2.953125 C 6.125 -1.960938 6.257812 -1.304688 6.53125 -0.984375 C 6.800781 -0.671875 7.375 -0.515625 8.25 -0.515625 C 10.300781 -0.515625 11.894531 -0.882812 13.03125 -1.625 C 14.164062 -2.375 14.957031 -3.460938 15.40625 -4.890625 C 15.863281 -6.328125 16.09375 -8.078125 16.09375 -10.140625 C 16.09375 -12.253906 15.84375 -14.003906 15.34375 -15.390625 C 14.84375 -16.785156 14.019531 -17.828125 12.875 -18.515625 C 11.726562 -19.203125 10.175781 -19.546875 8.21875 -19.546875 Z M 8.21875 -19.546875 "/></g></g></g><g fill="#4a1f5c" fill-opacity="1"><g transform="translate(299.762782, 70.835751)"><g><path d="M 7.765625 -14.984375 C 8.972656 -14.984375 10.054688 -14.71875 11.015625 -14.1875 C 11.984375 -13.664062 12.753906 -12.835938 13.328125 -11.703125 C 13.898438 -10.566406 14.1875 -9.09375 14.1875 -7.28125 C 14.1875 -5.46875 13.898438 -4 13.328125 -2.875 C 12.753906 -1.75 11.984375 -0.921875 11.015625 -0.390625 C 10.054688 0.128906 8.972656 0.390625 7.765625 0.390625 C 6.578125 0.390625 5.492188 0.128906 4.515625 -0.390625 C 3.546875 -0.921875 2.769531 -1.75 2.1875 -2.875 C 1.613281 -4 1.328125 -5.46875 1.328125 -7.28125 C 1.328125 -9.09375 1.613281 -10.566406 2.1875 -11.703125 C 2.769531 -12.835938 3.546875 -13.664062 4.515625 -14.1875 C 5.492188 -14.71875 6.578125 -14.984375 7.765625 -14.984375 Z M 7.765625 -14.421875 C 6.679688 -14.421875 5.796875 -13.863281 5.109375 -12.75 C 4.421875 -11.632812 4.078125 -9.8125 4.078125 -7.28125 C 4.078125 -4.75 4.421875 -2.929688 5.109375 -1.828125 C 5.796875 -0.722656 6.679688 -0.171875 7.765625 -0.171875 C 8.835938 -0.171875 9.71875 -0.722656 10.40625 -1.828125 C 11.09375 -2.929688 11.4375 -4.75 11.4375 -7.28125 C 11.4375 -9.8125 11.09375 -11.632812 10.40625 -12.75 C 9.71875 -13.863281 8.835938 -14.421875 7.765625 -14.421875 Z M 10.890625 -23.03125 C 11.109375 -22.84375 11.234375 -22.597656 11.265625 -22.296875 C 11.296875 -21.992188 11.171875 -21.65625 10.890625 -21.28125 C 10.597656 -20.914062 10.242188 -20.550781 9.828125 -20.1875 C 9.421875 -19.832031 8.9375 -19.40625 8.375 -18.90625 C 7.820312 -18.40625 7.164062 -17.757812 6.40625 -16.96875 L 6.09375 -17.21875 C 6.675781 -18.144531 7.144531 -18.9375 7.5 -19.59375 C 7.851562 -20.257812 8.148438 -20.835938 8.390625 -21.328125 C 8.640625 -21.816406 8.90625 -22.242188 9.1875 -22.609375 C 9.46875 -22.984375 9.765625 -23.1875 10.078125 -23.21875 C 10.390625 -23.257812 10.660156 -23.195312 10.890625 -23.03125 Z M 10.890625 -23.03125 "/></g></g></g><g fill="#4a1f5c" fill-opacity="1"><g transform="translate(315.290027, 70.835751)"><g><path d="M 10.34375 -14.984375 C 11.0625 -14.984375 11.660156 -14.890625 12.140625 -14.703125 C 12.617188 -14.515625 13.019531 -14.25 13.34375 -13.90625 C 13.695312 -13.53125 13.945312 -13.054688 14.09375 -12.484375 C 14.25 -11.921875 14.328125 -11.160156 14.328125 -10.203125 L 14.328125 -2.640625 C 14.328125 -1.835938 14.492188 -1.296875 14.828125 -1.015625 C 15.160156 -0.734375 15.710938 -0.59375 16.484375 -0.59375 L 16.484375 0 C 16.160156 -0.0195312 15.664062 -0.0390625 15 -0.0625 C 14.34375 -0.09375 13.707031 -0.109375 13.09375 -0.109375 C 12.46875 -0.109375 11.859375 -0.09375 11.265625 -0.0625 C 10.671875 -0.0390625 10.222656 -0.0195312 9.921875 0 L 9.921875 -0.59375 C 10.597656 -0.59375 11.078125 -0.734375 11.359375 -1.015625 C 11.640625 -1.296875 11.78125 -1.835938 11.78125 -2.640625 L 11.78125 -10.828125 C 11.78125 -11.410156 11.734375 -11.945312 11.640625 -12.4375 C 11.546875 -12.925781 11.332031 -13.320312 11 -13.625 C 10.675781 -13.925781 10.171875 -14.078125 9.484375 -14.078125 C 8.691406 -14.078125 8 -13.847656 7.40625 -13.390625 C 6.8125 -12.941406 6.347656 -12.328125 6.015625 -11.546875 C 5.691406 -10.765625 5.53125 -9.890625 5.53125 -8.921875 L 5.53125 -2.640625 C 5.53125 -1.835938 5.671875 -1.296875 5.953125 -1.015625 C 6.234375 -0.734375 6.710938 -0.59375 7.390625 -0.59375 L 7.390625 0 C 7.085938 -0.0195312 6.640625 -0.0390625 6.046875 -0.0625 C 5.453125 -0.09375 4.84375 -0.109375 4.21875 -0.109375 C 3.59375 -0.109375 2.945312 -0.09375 2.28125 -0.0625 C 1.625 -0.0390625 1.140625 -0.0195312 0.828125 0 L 0.828125 -0.59375 C 1.597656 -0.59375 2.144531 -0.734375 2.46875 -1.015625 C 2.800781 -1.296875 2.96875 -1.835938 2.96875 -2.640625 L 2.96875 -11.5 C 2.96875 -12.351562 2.816406 -12.984375 2.515625 -13.390625 C 2.210938 -13.796875 1.648438 -14 0.828125 -14 L 0.828125 -14.59375 C 1.429688 -14.53125 2.015625 -14.5 2.578125 -14.5 C 3.128906 -14.5 3.65625 -14.53125 4.15625 -14.59375 C 4.65625 -14.664062 5.113281 -14.769531 5.53125 -14.90625 L 5.53125 -11.5625 C 6.019531 -12.84375 6.703125 -13.734375 7.578125 -14.234375 C 8.453125 -14.734375 9.375 -14.984375 10.34375 -14.984375 Z M 10.34375 -14.984375 "/></g></g></g><g fill="#4a1f5c" fill-opacity="1"><g transform="translate(332.205654, 70.835751)"><g><path d="M 13.703125 -22.203125 L 13.703125 -3.09375 C 13.703125 -2.238281 13.859375 -1.609375 14.171875 -1.203125 C 14.484375 -0.796875 15.046875 -0.59375 15.859375 -0.59375 L 15.859375 0 C 15.273438 -0.0507812 14.691406 -0.078125 14.109375 -0.078125 C 13.554688 -0.078125 13.03125 -0.0507812 12.53125 0 C 12.03125 0.0507812 11.570312 0.15625 11.15625 0.3125 L 11.15625 -18.8125 C 11.15625 -19.65625 11.003906 -20.28125 10.703125 -20.6875 C 10.398438 -21.09375 9.835938 -21.296875 9.015625 -21.296875 L 9.015625 -21.890625 C 9.617188 -21.835938 10.203125 -21.8125 10.765625 -21.8125 C 11.316406 -21.8125 11.84375 -21.84375 12.34375 -21.90625 C 12.84375 -21.976562 13.296875 -22.078125 13.703125 -22.203125 Z M 7.765625 -14.984375 C 8.597656 -14.984375 9.375 -14.785156 10.09375 -14.390625 C 10.820312 -13.992188 11.3125 -13.3125 11.5625 -12.34375 L 11.1875 -12.0625 C 10.925781 -12.851562 10.515625 -13.425781 9.953125 -13.78125 C 9.398438 -14.144531 8.742188 -14.328125 7.984375 -14.328125 C 6.867188 -14.328125 5.9375 -13.75 5.1875 -12.59375 C 4.445312 -11.445312 4.085938 -9.675781 4.109375 -7.28125 C 4.109375 -5.75 4.253906 -4.476562 4.546875 -3.46875 C 4.835938 -2.457031 5.269531 -1.703125 5.84375 -1.203125 C 6.425781 -0.703125 7.128906 -0.453125 7.953125 -0.453125 C 8.753906 -0.453125 9.472656 -0.789062 10.109375 -1.46875 C 10.753906 -2.15625 11.144531 -3.15625 11.28125 -4.46875 L 11.609375 -4.078125 C 11.460938 -2.640625 11.003906 -1.535156 10.234375 -0.765625 C 9.472656 0.00390625 8.441406 0.390625 7.140625 0.390625 C 5.960938 0.390625 4.9375 0.109375 4.0625 -0.453125 C 3.1875 -1.015625 2.515625 -1.863281 2.046875 -3 C 1.585938 -4.132812 1.359375 -5.5625 1.359375 -7.28125 C 1.359375 -9 1.65625 -10.425781 2.25 -11.5625 C 2.84375 -12.707031 3.625 -13.5625 4.59375 -14.125 C 5.570312 -14.695312 6.628906 -14.984375 7.765625 -14.984375 Z M 7.765625 -14.984375 "/></g></g></g><g fill="#4a1f5c" fill-opacity="1"><g transform="translate(348.66793, 70.835751)"><g><path d="M 7.703125 -14.984375 C 9.367188 -14.984375 10.664062 -14.476562 11.59375 -13.46875 C 12.53125 -12.457031 13 -10.882812 13 -8.75 L 3 -8.75 L 2.96875 -9.296875 L 10.28125 -9.296875 C 10.320312 -10.222656 10.242188 -11.078125 10.046875 -11.859375 C 9.859375 -12.640625 9.5625 -13.265625 9.15625 -13.734375 C 8.757812 -14.210938 8.238281 -14.453125 7.59375 -14.453125 C 6.71875 -14.453125 5.945312 -14.015625 5.28125 -13.140625 C 4.613281 -12.273438 4.210938 -10.898438 4.078125 -9.015625 L 4.171875 -8.890625 C 4.128906 -8.609375 4.097656 -8.296875 4.078125 -7.953125 C 4.054688 -7.617188 4.046875 -7.28125 4.046875 -6.9375 C 4.046875 -5.65625 4.253906 -4.550781 4.671875 -3.625 C 5.085938 -2.695312 5.628906 -1.992188 6.296875 -1.515625 C 6.972656 -1.035156 7.671875 -0.796875 8.390625 -0.796875 C 8.953125 -0.796875 9.488281 -0.882812 10 -1.0625 C 10.507812 -1.238281 10.976562 -1.535156 11.40625 -1.953125 C 11.84375 -2.367188 12.222656 -2.925781 12.546875 -3.625 L 13.109375 -3.40625 C 12.898438 -2.78125 12.5625 -2.171875 12.09375 -1.578125 C 11.625 -0.992188 11.03125 -0.519531 10.3125 -0.15625 C 9.59375 0.207031 8.757812 0.390625 7.8125 0.390625 C 6.457031 0.390625 5.289062 0.0820312 4.3125 -0.53125 C 3.34375 -1.15625 2.597656 -2.019531 2.078125 -3.125 C 1.554688 -4.226562 1.296875 -5.5 1.296875 -6.9375 C 1.296875 -8.601562 1.5625 -10.035156 2.09375 -11.234375 C 2.625 -12.429688 3.367188 -13.351562 4.328125 -14 C 5.296875 -14.65625 6.421875 -14.984375 7.703125 -14.984375 Z M 7.703125 -14.984375 "/></g></g></g><g fill="#4a1f5c" fill-opacity="1"><g transform="translate(362.608451, 70.835751)"><g><path d="M 6.09375 -22.15625 C 7.28125 -22.15625 8.316406 -21.953125 9.203125 -21.546875 C 10.085938 -21.140625 10.78125 -20.550781 11.28125 -19.78125 C 11.789062 -19.019531 12.046875 -18.109375 12.046875 -17.046875 C 12.046875 -15.992188 11.773438 -15.050781 11.234375 -14.21875 C 10.691406 -13.382812 9.941406 -12.679688 8.984375 -12.109375 C 8.035156 -11.535156 6.929688 -11.085938 5.671875 -10.765625 L 5.671875 -6.625 L 5.09375 -6.625 L 5.09375 -11.015625 C 6.363281 -11.492188 7.304688 -12.015625 7.921875 -12.578125 C 8.546875 -13.140625 8.96875 -13.75 9.1875 -14.40625 C 9.40625 -15.070312 9.515625 -15.773438 9.515625 -16.515625 C 9.515625 -18.304688 9.144531 -19.597656 8.40625 -20.390625 C 7.675781 -21.191406 6.722656 -21.59375 5.546875 -21.59375 C 5.097656 -21.59375 4.601562 -21.523438 4.0625 -21.390625 C 3.519531 -21.253906 3.09375 -20.976562 2.78125 -20.5625 C 3.132812 -20.488281 3.421875 -20.328125 3.640625 -20.078125 C 3.859375 -19.835938 3.96875 -19.519531 3.96875 -19.125 C 3.96875 -18.644531 3.816406 -18.269531 3.515625 -18 C 3.210938 -17.726562 2.84375 -17.59375 2.40625 -17.59375 C 1.96875 -17.59375 1.609375 -17.734375 1.328125 -18.015625 C 1.046875 -18.296875 0.90625 -18.65625 0.90625 -19.09375 C 0.90625 -19.488281 1.023438 -19.859375 1.265625 -20.203125 C 1.515625 -20.554688 1.835938 -20.867188 2.234375 -21.140625 C 2.628906 -21.398438 3.144531 -21.632812 3.78125 -21.84375 C 4.414062 -22.050781 5.1875 -22.15625 6.09375 -22.15625 Z M 5.40625 -3.234375 C 5.894531 -3.234375 6.316406 -3.050781 6.671875 -2.6875 C 7.035156 -2.332031 7.21875 -1.910156 7.21875 -1.421875 C 7.21875 -0.929688 7.035156 -0.503906 6.671875 -0.140625 C 6.316406 0.210938 5.894531 0.390625 5.40625 0.390625 C 4.914062 0.390625 4.488281 0.210938 4.125 -0.140625 C 3.769531 -0.503906 3.59375 -0.929688 3.59375 -1.421875 C 3.59375 -1.910156 3.769531 -2.332031 4.125 -2.6875 C 4.488281 -3.050781 4.914062 -3.234375 5.40625 -3.234375 Z M 5.40625 -3.234375 "/></g></g></g><g fill="#c7a9f0" fill-opacity="1"><g transform="translate(266.441551, 36.983718)"><g><path d="M 7.8125 -9.0625 L 7.8125 -5.234375 C 6.570312 -4.804688 5.632812 -4.320312 5 -3.78125 C 4.363281 -3.238281 3.9375 -2.648438 3.71875 -2.015625 C 3.507812 -1.390625 3.40625 -0.726562 3.40625 -0.03125 C 3.40625 1.65625 3.769531 2.875 4.5 3.625 C 5.238281 4.382812 6.191406 4.765625 7.359375 4.765625 C 7.816406 4.765625 8.3125 4.710938 8.84375 4.609375 C 9.382812 4.515625 9.816406 4.316406 10.140625 4.015625 C 9.785156 3.941406 9.5 3.785156 9.28125 3.546875 C 9.0625 3.316406 8.953125 2.992188 8.953125 2.578125 C 8.953125 2.085938 9.109375 1.707031 9.421875 1.4375 C 9.734375 1.175781 10.097656 1.046875 10.515625 1.046875 C 10.941406 1.046875 11.296875 1.1875 11.578125 1.46875 C 11.867188 1.75 12.015625 2.109375 12.015625 2.546875 C 12.015625 2.941406 11.894531 3.304688 11.65625 3.640625 C 11.414062 3.972656 11.09375 4.257812 10.6875 4.5 C 10.300781 4.726562 9.796875 4.921875 9.171875 5.078125 C 8.554688 5.242188 7.773438 5.328125 6.828125 5.328125 C 5.660156 5.328125 4.625 5.132812 3.71875 4.75 C 2.820312 4.363281 2.125 3.8125 1.625 3.09375 C 1.125 2.375 0.875 1.515625 0.875 0.515625 C 0.875 -0.503906 1.144531 -1.410156 1.6875 -2.203125 C 2.226562 -3.003906 2.972656 -3.679688 3.921875 -4.234375 C 4.878906 -4.796875 5.988281 -5.21875 7.25 -5.5 L 7.25 -9.0625 Z M 7.5 -15.015625 C 8 -15.015625 8.425781 -14.832031 8.78125 -14.46875 C 9.132812 -14.113281 9.3125 -13.691406 9.3125 -13.203125 C 9.3125 -12.710938 9.132812 -12.285156 8.78125 -11.921875 C 8.425781 -11.566406 8 -11.390625 7.5 -11.390625 C 7.007812 -11.390625 6.582031 -11.566406 6.21875 -11.921875 C 5.863281 -12.285156 5.6875 -12.710938 5.6875 -13.203125 C 5.6875 -13.691406 5.863281 -14.113281 6.21875 -14.46875 C 6.582031 -14.832031 7.007812 -15.015625 7.5 -15.015625 Z M 7.5 -15.015625 "/></g></g></g><g fill="#c7a9f0" fill-opacity="1"><g transform="translate(279.277027, 36.983718)"><g><path d="M 8.921875 -20.0625 C 12.304688 -20.0625 14.816406 -19.210938 16.453125 -17.515625 C 18.097656 -15.828125 18.921875 -13.40625 18.921875 -10.25 C 18.921875 -8.195312 18.519531 -6.398438 17.71875 -4.859375 C 16.914062 -3.316406 15.75 -2.117188 14.21875 -1.265625 C 12.6875 -0.421875 10.835938 0 8.671875 0 C 8.390625 0 8.007812 -0.0078125 7.53125 -0.03125 C 7.0625 -0.0507812 6.578125 -0.0625 6.078125 -0.0625 C 5.578125 -0.0703125 5.117188 -0.078125 4.703125 -0.078125 C 4.046875 -0.078125 3.394531 -0.0703125 2.75 -0.0625 C 2.101562 -0.0625 1.582031 -0.0390625 1.1875 0 L 1.1875 -0.5625 C 1.832031 -0.601562 2.316406 -0.679688 2.640625 -0.796875 C 2.972656 -0.910156 3.195312 -1.132812 3.3125 -1.46875 C 3.425781 -1.8125 3.484375 -2.320312 3.484375 -3 L 3.484375 -17.046875 C 3.484375 -17.753906 3.425781 -18.269531 3.3125 -18.59375 C 3.195312 -18.925781 2.972656 -19.15625 2.640625 -19.28125 C 2.316406 -19.40625 1.832031 -19.472656 1.1875 -19.484375 L 1.1875 -20.0625 C 1.582031 -20.039062 2.101562 -20.015625 2.75 -19.984375 C 3.394531 -19.953125 4.023438 -19.945312 4.640625 -19.96875 C 5.304688 -19.988281 6.050781 -20.007812 6.875 -20.03125 C 7.707031 -20.050781 8.390625 -20.0625 8.921875 -20.0625 Z M 8.21875 -19.546875 C 7.34375 -19.546875 6.773438 -19.382812 6.515625 -19.0625 C 6.253906 -18.738281 6.125 -18.085938 6.125 -17.109375 L 6.125 -2.953125 C 6.125 -1.960938 6.257812 -1.304688 6.53125 -0.984375 C 6.800781 -0.671875 7.375 -0.515625 8.25 -0.515625 C 10.300781 -0.515625 11.894531 -0.882812 13.03125 -1.625 C 14.164062 -2.375 14.957031 -3.460938 15.40625 -4.890625 C 15.863281 -6.328125 16.09375 -8.078125 16.09375 -10.140625 C 16.09375 -12.253906 15.84375 -14.003906 15.34375 -15.390625 C 14.84375 -16.785156 14.019531 -17.828125 12.875 -18.515625 C 11.726562 -19.203125 10.175781 -19.546875 8.21875 -19.546875 Z M 8.21875 -19.546875 "/></g></g></g><g fill="#c7a9f0" fill-opacity="1"><g transform="translate(299.762782, 36.983718)"><g><path d="M 7.765625 -14.984375 C 8.972656 -14.984375 10.054688 -14.71875 11.015625 -14.1875 C 11.984375 -13.664062 12.753906 -12.835938 13.328125 -11.703125 C 13.898438 -10.566406 14.1875 -9.09375 14.1875 -7.28125 C 14.1875 -5.46875 13.898438 -4 13.328125 -2.875 C 12.753906 -1.75 11.984375 -0.921875 11.015625 -0.390625 C 10.054688 0.128906 8.972656 0.390625 7.765625 0.390625 C 6.578125 0.390625 5.492188 0.128906 4.515625 -0.390625 C 3.546875 -0.921875 2.769531 -1.75 2.1875 -2.875 C 1.613281 -4 1.328125 -5.46875 1.328125 -7.28125 C 1.328125 -9.09375 1.613281 -10.566406 2.1875 -11.703125 C 2.769531 -12.835938 3.546875 -13.664062 4.515625 -14.1875 C 5.492188 -14.71875 6.578125 -14.984375 7.765625 -14.984375 Z M 7.765625 -14.421875 C 6.679688 -14.421875 5.796875 -13.863281 5.109375 -12.75 C 4.421875 -11.632812 4.078125 -9.8125 4.078125 -7.28125 C 4.078125 -4.75 4.421875 -2.929688 5.109375 -1.828125 C 5.796875 -0.722656 6.679688 -0.171875 7.765625 -0.171875 C 8.835938 -0.171875 9.71875 -0.722656 10.40625 -1.828125 C 11.09375 -2.929688 11.4375 -4.75 11.4375 -7.28125 C 11.4375 -9.8125 11.09375 -11.632812 10.40625 -12.75 C 9.71875 -13.863281 8.835938 -14.421875 7.765625 -14.421875 Z M 10.890625 -23.03125 C 11.109375 -22.84375 11.234375 -22.597656 11.265625 -22.296875 C 11.296875 -21.992188 11.171875 -21.65625 10.890625 -21.28125 C 10.597656 -20.914062 10.242188 -20.550781 9.828125 -20.1875 C 9.421875 -19.832031 8.9375 -19.40625 8.375 -18.90625 C 7.820312 -18.40625 7.164062 -17.757812 6.40625 -16.96875 L 6.09375 -17.21875 C 6.675781 -18.144531 7.144531 -18.9375 7.5 -19.59375 C 7.851562 -20.257812 8.148438 -20.835938 8.390625 -21.328125 C 8.640625 -21.816406 8.90625 -22.242188 9.1875 -22.609375 C 9.46875 -22.984375 9.765625 -23.1875 10.078125 -23.21875 C 10.390625 -23.257812 10.660156 -23.195312 10.890625 -23.03125 Z M 10.890625 -23.03125 "/></g></g></g><g fill="#c7a9f0" fill-opacity="1"><g transform="translate(315.290027, 36.983718)"><g><path d="M 10.34375 -14.984375 C 11.0625 -14.984375 11.660156 -14.890625 12.140625 -14.703125 C 12.617188 -14.515625 13.019531 -14.25 13.34375 -13.90625 C 13.695312 -13.53125 13.945312 -13.054688 14.09375 -12.484375 C 14.25 -11.921875 14.328125 -11.160156 14.328125 -10.203125 L 14.328125 -2.640625 C 14.328125 -1.835938 14.492188 -1.296875 14.828125 -1.015625 C 15.160156 -0.734375 15.710938 -0.59375 16.484375 -0.59375 L 16.484375 0 C 16.160156 -0.0195312 15.664062 -0.0390625 15 -0.0625 C 14.34375 -0.09375 13.707031 -0.109375 13.09375 -0.109375 C 12.46875 -0.109375 11.859375 -0.09375 11.265625 -0.0625 C 10.671875 -0.0390625 10.222656 -0.0195312 9.921875 0 L 9.921875 -0.59375 C 10.597656 -0.59375 11.078125 -0.734375 11.359375 -1.015625 C 11.640625 -1.296875 11.78125 -1.835938 11.78125 -2.640625 L 11.78125 -10.828125 C 11.78125 -11.410156 11.734375 -11.945312 11.640625 -12.4375 C 11.546875 -12.925781 11.332031 -13.320312 11 -13.625 C 10.675781 -13.925781 10.171875 -14.078125 9.484375 -14.078125 C 8.691406 -14.078125 8 -13.847656 7.40625 -13.390625 C 6.8125 -12.941406 6.347656 -12.328125 6.015625 -11.546875 C 5.691406 -10.765625 5.53125 -9.890625 5.53125 -8.921875 L 5.53125 -2.640625 C 5.53125 -1.835938 5.671875 -1.296875 5.953125 -1.015625 C 6.234375 -0.734375 6.710938 -0.59375 7.390625 -0.59375 L 7.390625 0 C 7.085938 -0.0195312 6.640625 -0.0390625 6.046875 -0.0625 C 5.453125 -0.09375 4.84375 -0.109375 4.21875 -0.109375 C 3.59375 -0.109375 2.945312 -0.09375 2.28125 -0.0625 C 1.625 -0.0390625 1.140625 -0.0195312 0.828125 0 L 0.828125 -0.59375 C 1.597656 -0.59375 2.144531 -0.734375 2.46875 -1.015625 C 2.800781 -1.296875 2.96875 -1.835938 2.96875 -2.640625 L 2.96875 -11.5 C 2.96875 -12.351562 2.816406 -12.984375 2.515625 -13.390625 C 2.210938 -13.796875 1.648438 -14 0.828125 -14 L 0.828125 -14.59375 C 1.429688 -14.53125 2.015625 -14.5 2.578125 -14.5 C 3.128906 -14.5 3.65625 -14.53125 4.15625 -14.59375 C 4.65625 -14.664062 5.113281 -14.769531 5.53125 -14.90625 L 5.53125 -11.5625 C 6.019531 -12.84375 6.703125 -13.734375 7.578125 -14.234375 C 8.453125 -14.734375 9.375 -14.984375 10.34375 -14.984375 Z M 10.34375 -14.984375 "/></g></g></g><g fill="#c7a9f0" fill-opacity="1"><g transform="translate(332.205654, 36.983718)"><g><path d="M 13.703125 -22.203125 L 13.703125 -3.09375 C 13.703125 -2.238281 13.859375 -1.609375 14.171875 -1.203125 C 14.484375 -0.796875 15.046875 -0.59375 15.859375 -0.59375 L 15.859375 0 C 15.273438 -0.0507812 14.691406 -0.078125 14.109375 -0.078125 C 13.554688 -0.078125 13.03125 -0.0507812 12.53125 0 C 12.03125 0.0507812 11.570312 0.15625 11.15625 0.3125 L 11.15625 -18.8125 C 11.15625 -19.65625 11.003906 -20.28125 10.703125 -20.6875 C 10.398438 -21.09375 9.835938 -21.296875 9.015625 -21.296875 L 9.015625 -21.890625 C 9.617188 -21.835938 10.203125 -21.8125 10.765625 -21.8125 C 11.316406 -21.8125 11.84375 -21.84375 12.34375 -21.90625 C 12.84375 -21.976562 13.296875 -22.078125 13.703125 -22.203125 Z M 7.765625 -14.984375 C 8.597656 -14.984375 9.375 -14.785156 10.09375 -14.390625 C 10.820312 -13.992188 11.3125 -13.3125 11.5625 -12.34375 L 11.1875 -12.0625 C 10.925781 -12.851562 10.515625 -13.425781 9.953125 -13.78125 C 9.398438 -14.144531 8.742188 -14.328125 7.984375 -14.328125 C 6.867188 -14.328125 5.9375 -13.75 5.1875 -12.59375 C 4.445312 -11.445312 4.085938 -9.675781 4.109375 -7.28125 C 4.109375 -5.75 4.253906 -4.476562 4.546875 -3.46875 C 4.835938 -2.457031 5.269531 -1.703125 5.84375 -1.203125 C 6.425781 -0.703125 7.128906 -0.453125 7.953125 -0.453125 C 8.753906 -0.453125 9.472656 -0.789062 10.109375 -1.46875 C 10.753906 -2.15625 11.144531 -3.15625 11.28125 -4.46875 L 11.609375 -4.078125 C 11.460938 -2.640625 11.003906 -1.535156 10.234375 -0.765625 C 9.472656 0.00390625 8.441406 0.390625 7.140625 0.390625 C 5.960938 0.390625 4.9375 0.109375 4.0625 -0.453125 C 3.1875 -1.015625 2.515625 -1.863281 2.046875 -3 C 1.585938 -4.132812 1.359375 -5.5625 1.359375 -7.28125 C 1.359375 -9 1.65625 -10.425781 2.25 -11.5625 C 2.84375 -12.707031 3.625 -13.5625 4.59375 -14.125 C 5.570312 -14.695312 6.628906 -14.984375 7.765625 -14.984375 Z M 7.765625 -14.984375 "/></g></g></g><g fill="#c7a9f0" fill-opacity="1"><g transform="translate(348.66793, 36.983718)"><g><path d="M 7.703125 -14.984375 C 9.367188 -14.984375 10.664062 -14.476562 11.59375 -13.46875 C 12.53125 -12.457031 13 -10.882812 13 -8.75 L 3 -8.75 L 2.96875 -9.296875 L 10.28125 -9.296875 C 10.320312 -10.222656 10.242188 -11.078125 10.046875 -11.859375 C 9.859375 -12.640625 9.5625 -13.265625 9.15625 -13.734375 C 8.757812 -14.210938 8.238281 -14.453125 7.59375 -14.453125 C 6.71875 -14.453125 5.945312 -14.015625 5.28125 -13.140625 C 4.613281 -12.273438 4.210938 -10.898438 4.078125 -9.015625 L 4.171875 -8.890625 C 4.128906 -8.609375 4.097656 -8.296875 4.078125 -7.953125 C 4.054688 -7.617188 4.046875 -7.28125 4.046875 -6.9375 C 4.046875 -5.65625 4.253906 -4.550781 4.671875 -3.625 C 5.085938 -2.695312 5.628906 -1.992188 6.296875 -1.515625 C 6.972656 -1.035156 7.671875 -0.796875 8.390625 -0.796875 C 8.953125 -0.796875 9.488281 -0.882812 10 -1.0625 C 10.507812 -1.238281 10.976562 -1.535156 11.40625 -1.953125 C 11.84375 -2.367188 12.222656 -2.925781 12.546875 -3.625 L 13.109375 -3.40625 C 12.898438 -2.78125 12.5625 -2.171875 12.09375 -1.578125 C 11.625 -0.992188 11.03125 -0.519531 10.3125 -0.15625 C 9.59375 0.207031 8.757812 0.390625 7.8125 0.390625 C 6.457031 0.390625 5.289062 0.0820312 4.3125 -0.53125 C 3.34375 -1.15625 2.597656 -2.019531 2.078125 -3.125 C 1.554688 -4.226562 1.296875 -5.5 1.296875 -6.9375 C 1.296875 -8.601562 1.5625 -10.035156 2.09375 -11.234375 C 2.625 -12.429688 3.367188 -13.351562 4.328125 -14 C 5.296875 -14.65625 6.421875 -14.984375 7.703125 -14.984375 Z M 7.703125 -14.984375 "/></g></g></g><g fill="#c7a9f0" fill-opacity="1"><g transform="translate(362.608451, 36.983718)"><g><path d="M 6.09375 -22.15625 C 7.28125 -22.15625 8.316406 -21.953125 9.203125 -21.546875 C 10.085938 -21.140625 10.78125 -20.550781 11.28125 -19.78125 C 11.789062 -19.019531 12.046875 -18.109375 12.046875 -17.046875 C 12.046875 -15.992188 11.773438 -15.050781 11.234375 -14.21875 C 10.691406 -13.382812 9.941406 -12.679688 8.984375 -12.109375 C 8.035156 -11.535156 6.929688 -11.085938 5.671875 -10.765625 L 5.671875 -6.625 L 5.09375 -6.625 L 5.09375 -11.015625 C 6.363281 -11.492188 7.304688 -12.015625 7.921875 -12.578125 C 8.546875 -13.140625 8.96875 -13.75 9.1875 -14.40625 C 9.40625 -15.070312 9.515625 -15.773438 9.515625 -16.515625 C 9.515625 -18.304688 9.144531 -19.597656 8.40625 -20.390625 C 7.675781 -21.191406 6.722656 -21.59375 5.546875 -21.59375 C 5.097656 -21.59375 4.601562 -21.523438 4.0625 -21.390625 C 3.519531 -21.253906 3.09375 -20.976562 2.78125 -20.5625 C 3.132812 -20.488281 3.421875 -20.328125 3.640625 -20.078125 C 3.859375 -19.835938 3.96875 -19.519531 3.96875 -19.125 C 3.96875 -18.644531 3.816406 -18.269531 3.515625 -18 C 3.210938 -17.726562 2.84375 -17.59375 2.40625 -17.59375 C 1.96875 -17.59375 1.609375 -17.734375 1.328125 -18.015625 C 1.046875 -18.296875 0.90625 -18.65625 0.90625 -19.09375 C 0.90625 -19.488281 1.023438 -19.859375 1.265625 -20.203125 C 1.515625 -20.554688 1.835938 -20.867188 2.234375 -21.140625 C 2.628906 -21.398438 3.144531 -21.632812 3.78125 -21.84375 C 4.414062 -22.050781 5.1875 -22.15625 6.09375 -22.15625 Z M 5.40625 -3.234375 C 5.894531 -3.234375 6.316406 -3.050781 6.671875 -2.6875 C 7.035156 -2.332031 7.21875 -1.910156 7.21875 -1.421875 C 7.21875 -0.929688 7.035156 -0.503906 6.671875 -0.140625 C 6.316406 0.210938 5.894531 0.390625 5.40625 0.390625 C 4.914062 0.390625 4.488281 0.210938 4.125 -0.140625 C 3.769531 -0.503906 3.59375 -0.929688 3.59375 -1.421875 C 3.59375 -1.910156 3.769531 -2.332031 4.125 -2.6875 C 4.488281 -3.050781 4.914062 -3.234375 5.40625 -3.234375 Z M 5.40625 -3.234375 "/></g></g></g></svg>