<svg xmlns="http://www.w3.org/2000/svg" xmlns:xlink="http://www.w3.org/1999/xlink" width="857" zoomAndPan="magnify" viewBox="0 0 642.75 50.249999" height="67" preserveAspectRatio="xMidYMid meet" version="1.0"><defs><g/><clipPath id="2eee01579d"><path d="M 163.136719 8.878906 L 200 8.878906 L 200 21 L 163.136719 21 Z M 163.136719 8.878906 " clip-rule="nonzero"/></clipPath><clipPath id="75157edcdd"><path d="M 163.136719 21 L 200 21 L 200 37.699219 L 163.136719 37.699219 Z M 163.136719 21 " clip-rule="nonzero"/></clipPath><clipPath id="361abc853e"><path d="M 441.71875 8.292969 L 478.667969 8.292969 L 478.667969 20 L 441.71875 20 Z M 441.71875 8.292969 " clip-rule="nonzero"/></clipPath><clipPath id="b583350367"><path d="M 441.71875 20 L 478.667969 20 L 478.667969 37.113281 L 441.71875 37.113281 Z M 441.71875 20 " clip-rule="nonzero"/></clipPath></defs><g fill="#ffffff" fill-opacity="1"><g transform="translate(213.317508, 35.08675)"><g><path d="M 7.078125 -19.875 C 7.992188 -19.875 8.691406 -19.765625 9.171875 -19.546875 C 9.648438 -19.335938 10.078125 -19.101562 10.453125 -18.84375 C 10.671875 -18.71875 10.847656 -18.625 10.984375 -18.5625 C 11.117188 -18.5 11.253906 -18.46875 11.390625 -18.46875 C 11.578125 -18.46875 11.707031 -18.566406 11.78125 -18.765625 C 11.863281 -18.972656 11.9375 -19.28125 12 -19.6875 L 12.625 -19.6875 C 12.613281 -19.363281 12.59375 -18.984375 12.5625 -18.546875 C 12.53125 -18.117188 12.507812 -17.550781 12.5 -16.84375 C 12.5 -16.132812 12.5 -15.203125 12.5 -14.046875 L 11.859375 -14.046875 C 11.804688 -14.929688 11.613281 -15.773438 11.28125 -16.578125 C 10.945312 -17.390625 10.460938 -18.050781 9.828125 -18.5625 C 9.191406 -19.082031 8.359375 -19.34375 7.328125 -19.34375 C 6.347656 -19.34375 5.539062 -19.046875 4.90625 -18.453125 C 4.269531 -17.867188 3.953125 -17.097656 3.953125 -16.140625 C 3.953125 -15.304688 4.160156 -14.609375 4.578125 -14.046875 C 5.003906 -13.492188 5.570312 -12.988281 6.28125 -12.53125 C 7 -12.082031 7.769531 -11.597656 8.59375 -11.078125 C 9.550781 -10.492188 10.398438 -9.910156 11.140625 -9.328125 C 11.890625 -8.742188 12.484375 -8.101562 12.921875 -7.40625 C 13.359375 -6.707031 13.578125 -5.859375 13.578125 -4.859375 C 13.578125 -3.679688 13.304688 -2.707031 12.765625 -1.9375 C 12.234375 -1.164062 11.523438 -0.582031 10.640625 -0.1875 C 9.753906 0.195312 8.78125 0.390625 7.71875 0.390625 C 6.738281 0.390625 5.960938 0.273438 5.390625 0.046875 C 4.816406 -0.171875 4.328125 -0.398438 3.921875 -0.640625 C 3.515625 -0.890625 3.203125 -1.015625 2.984375 -1.015625 C 2.796875 -1.015625 2.660156 -0.914062 2.578125 -0.71875 C 2.492188 -0.519531 2.425781 -0.21875 2.375 0.1875 L 1.734375 0.1875 C 1.773438 -0.195312 1.800781 -0.648438 1.8125 -1.171875 C 1.820312 -1.703125 1.832031 -2.390625 1.84375 -3.234375 C 1.851562 -4.078125 1.859375 -5.144531 1.859375 -6.4375 L 2.484375 -6.4375 C 2.554688 -5.332031 2.765625 -4.300781 3.109375 -3.34375 C 3.453125 -2.382812 3.976562 -1.613281 4.6875 -1.03125 C 5.394531 -0.457031 6.335938 -0.171875 7.515625 -0.171875 C 8.128906 -0.171875 8.707031 -0.289062 9.25 -0.53125 C 9.789062 -0.78125 10.234375 -1.175781 10.578125 -1.71875 C 10.929688 -2.269531 11.109375 -2.976562 11.109375 -3.84375 C 11.109375 -4.59375 10.925781 -5.25 10.5625 -5.8125 C 10.207031 -6.375 9.707031 -6.898438 9.0625 -7.390625 C 8.414062 -7.878906 7.660156 -8.382812 6.796875 -8.90625 C 5.929688 -9.4375 5.117188 -9.976562 4.359375 -10.53125 C 3.609375 -11.082031 3.003906 -11.722656 2.546875 -12.453125 C 2.097656 -13.179688 1.875 -14.0625 1.875 -15.09375 C 1.875 -16.175781 2.117188 -17.070312 2.609375 -17.78125 C 3.097656 -18.488281 3.738281 -19.015625 4.53125 -19.359375 C 5.320312 -19.703125 6.171875 -19.875 7.078125 -19.875 Z M 7.078125 -19.875 "/></g></g></g><g fill="#ffffff" fill-opacity="1"><g transform="translate(228.238047, 35.08675)"><g><path d="M 13.34375 -14.53125 L 13.34375 -2.984375 C 13.34375 -2.148438 13.492188 -1.535156 13.796875 -1.140625 C 14.109375 -0.742188 14.660156 -0.546875 15.453125 -0.546875 L 15.453125 0.03125 C 14.878906 -0.03125 14.304688 -0.0625 13.734375 -0.0625 C 13.203125 -0.0625 12.691406 -0.0351562 12.203125 0.015625 C 11.710938 0.078125 11.265625 0.179688 10.859375 0.328125 L 10.859375 -2.9375 C 10.398438 -1.738281 9.75 -0.882812 8.90625 -0.375 C 8.070312 0.132812 7.210938 0.390625 6.328125 0.390625 C 5.679688 0.390625 5.117188 0.296875 4.640625 0.109375 C 4.160156 -0.078125 3.765625 -0.332031 3.453125 -0.65625 C 3.109375 -1.03125 2.867188 -1.507812 2.734375 -2.09375 C 2.609375 -2.6875 2.546875 -3.414062 2.546875 -4.28125 L 2.546875 -11.21875 C 2.546875 -12.050781 2.394531 -12.664062 2.09375 -13.0625 C 1.800781 -13.457031 1.25 -13.65625 0.4375 -13.65625 L 0.4375 -14.234375 C 1.03125 -14.179688 1.601562 -14.15625 2.15625 -14.15625 C 2.6875 -14.15625 3.195312 -14.1875 3.6875 -14.25 C 4.175781 -14.3125 4.625 -14.40625 5.03125 -14.53125 L 5.03125 -3.671875 C 5.03125 -3.097656 5.066406 -2.570312 5.140625 -2.09375 C 5.210938 -1.613281 5.394531 -1.226562 5.6875 -0.9375 C 5.988281 -0.644531 6.46875 -0.5 7.125 -0.5 C 7.84375 -0.5 8.484375 -0.71875 9.046875 -1.15625 C 9.609375 -1.601562 10.050781 -2.203125 10.375 -2.953125 C 10.695312 -3.710938 10.859375 -4.5625 10.859375 -5.5 L 10.859375 -11.21875 C 10.859375 -12.050781 10.710938 -12.664062 10.421875 -13.0625 C 10.128906 -13.457031 9.578125 -13.65625 8.765625 -13.65625 L 8.765625 -14.234375 C 9.347656 -14.179688 9.914062 -14.15625 10.46875 -14.15625 C 11.007812 -14.15625 11.523438 -14.1875 12.015625 -14.25 C 12.503906 -14.3125 12.945312 -14.40625 13.34375 -14.53125 Z M 13.34375 -14.53125 "/></g></g></g><g fill="#ffffff" fill-opacity="1"><g transform="translate(244.291442, 35.08675)"><g><path d="M 9.015625 -14.625 C 10.523438 -14.625 11.773438 -14 12.765625 -12.75 C 13.765625 -11.507812 14.265625 -9.628906 14.265625 -7.109375 C 14.265625 -5.441406 13.984375 -4.050781 13.421875 -2.9375 C 12.859375 -1.820312 12.101562 -0.988281 11.15625 -0.4375 C 10.21875 0.113281 9.195312 0.390625 8.09375 0.390625 C 7.175781 0.390625 6.285156 0.128906 5.421875 -0.390625 C 4.566406 -0.921875 3.929688 -1.703125 3.515625 -2.734375 L 4.0625 -2.4375 C 4.519531 -1.695312 5.085938 -1.144531 5.765625 -0.78125 C 6.453125 -0.425781 7.15625 -0.25 7.875 -0.25 C 9.113281 -0.25 10.039062 -0.804688 10.65625 -1.921875 C 11.269531 -3.035156 11.578125 -4.765625 11.578125 -7.109375 C 11.578125 -8.597656 11.457031 -9.835938 11.21875 -10.828125 C 10.976562 -11.828125 10.609375 -12.570312 10.109375 -13.0625 C 9.617188 -13.550781 8.984375 -13.796875 8.203125 -13.796875 C 7.359375 -13.796875 6.570312 -13.410156 5.84375 -12.640625 C 5.113281 -11.878906 4.664062 -10.757812 4.5 -9.28125 L 4.171875 -9.671875 C 4.378906 -11.242188 4.925781 -12.460938 5.8125 -13.328125 C 6.707031 -14.191406 7.773438 -14.625 9.015625 -14.625 Z M 4.703125 -21.640625 L 4.703125 -1.4375 C 4.460938 -1.238281 4.21875 -1.03125 3.96875 -0.8125 C 3.71875 -0.601562 3.472656 -0.394531 3.234375 -0.1875 C 2.992188 0.0078125 2.742188 0.21875 2.484375 0.4375 L 2.015625 0.25 C 2.085938 -0.0078125 2.140625 -0.269531 2.171875 -0.53125 C 2.203125 -0.800781 2.21875 -1.078125 2.21875 -1.359375 L 2.21875 -18.328125 C 2.21875 -19.148438 2.066406 -19.757812 1.765625 -20.15625 C 1.472656 -20.5625 0.921875 -20.765625 0.109375 -20.765625 L 0.109375 -21.34375 C 0.703125 -21.28125 1.273438 -21.25 1.828125 -21.25 C 2.359375 -21.25 2.867188 -21.28125 3.359375 -21.34375 C 3.847656 -21.414062 4.296875 -21.515625 4.703125 -21.640625 Z M 4.703125 -21.640625 "/></g></g></g><g fill="#ffffff" fill-opacity="1"><g transform="translate(259.847484, 35.08675)"><g><path d="M 5.390625 -14.53125 L 5.390625 -2.578125 C 5.390625 -1.796875 5.550781 -1.265625 5.875 -0.984375 C 6.195312 -0.710938 6.734375 -0.578125 7.484375 -0.578125 L 7.484375 0 C 7.171875 -0.0195312 6.695312 -0.0390625 6.0625 -0.0625 C 5.425781 -0.09375 4.785156 -0.109375 4.140625 -0.109375 C 3.515625 -0.109375 2.878906 -0.09375 2.234375 -0.0625 C 1.585938 -0.0390625 1.109375 -0.0195312 0.796875 0 L 0.796875 -0.578125 C 1.554688 -0.578125 2.097656 -0.710938 2.421875 -0.984375 C 2.742188 -1.265625 2.90625 -1.796875 2.90625 -2.578125 L 2.90625 -11.21875 C 2.90625 -12.050781 2.753906 -12.664062 2.453125 -13.0625 C 2.160156 -13.457031 1.609375 -13.65625 0.796875 -13.65625 L 0.796875 -14.234375 C 1.390625 -14.179688 1.960938 -14.15625 2.515625 -14.15625 C 3.046875 -14.15625 3.554688 -14.1875 4.046875 -14.25 C 4.535156 -14.3125 4.984375 -14.40625 5.390625 -14.53125 Z M 6.84375 -22.46875 C 7.070312 -22.289062 7.195312 -22.050781 7.21875 -21.75 C 7.25 -21.457031 7.125 -21.128906 6.84375 -20.765625 C 6.570312 -20.410156 6.234375 -20.054688 5.828125 -19.703125 C 5.421875 -19.359375 4.945312 -18.941406 4.40625 -18.453125 C 3.863281 -17.960938 3.222656 -17.332031 2.484375 -16.5625 L 2.171875 -16.8125 C 2.742188 -17.707031 3.203125 -18.476562 3.546875 -19.125 C 3.890625 -19.769531 4.179688 -20.332031 4.421875 -20.8125 C 4.660156 -21.289062 4.914062 -21.707031 5.1875 -22.0625 C 5.46875 -22.425781 5.757812 -22.625 6.0625 -22.65625 C 6.363281 -22.695312 6.625 -22.632812 6.84375 -22.46875 Z M 6.84375 -22.46875 "/></g></g></g><g fill="#ffffff" fill-opacity="1"><g transform="translate(267.943257, 35.08675)"><g/></g></g><g fill="#ffffff" fill-opacity="1"><g transform="translate(274.463993, 35.08675)"><g><path d="M 5.25 -18.828125 L 5.25 -14.203125 L 9.34375 -14.203125 L 9.34375 -13.65625 L 5.25 -13.65625 L 5.25 -2.953125 C 5.25 -2.085938 5.40625 -1.476562 5.71875 -1.125 C 6.03125 -0.78125 6.460938 -0.609375 7.015625 -0.609375 C 7.566406 -0.609375 8.046875 -0.832031 8.453125 -1.28125 C 8.859375 -1.738281 9.210938 -2.5 9.515625 -3.5625 L 10.0625 -3.421875 C 9.875 -2.359375 9.507812 -1.457031 8.96875 -0.71875 C 8.425781 0.0195312 7.59375 0.390625 6.46875 0.390625 C 5.84375 0.390625 5.328125 0.3125 4.921875 0.15625 C 4.515625 0 4.15625 -0.226562 3.84375 -0.53125 C 3.4375 -0.945312 3.15625 -1.453125 3 -2.046875 C 2.84375 -2.640625 2.765625 -3.421875 2.765625 -4.390625 L 2.765625 -13.65625 L 0.109375 -13.65625 L 0.109375 -14.203125 L 2.765625 -14.203125 L 2.765625 -18.4375 C 3.222656 -18.457031 3.660156 -18.492188 4.078125 -18.546875 C 4.503906 -18.597656 4.894531 -18.691406 5.25 -18.828125 Z M 5.25 -18.828125 "/></g></g></g><g fill="#ffffff" fill-opacity="1"><g transform="translate(284.245238, 35.08675)"><g><path d="M 13.34375 -14.53125 L 13.34375 -2.984375 C 13.34375 -2.148438 13.492188 -1.535156 13.796875 -1.140625 C 14.109375 -0.742188 14.660156 -0.546875 15.453125 -0.546875 L 15.453125 0.03125 C 14.878906 -0.03125 14.304688 -0.0625 13.734375 -0.0625 C 13.203125 -0.0625 12.691406 -0.0351562 12.203125 0.015625 C 11.710938 0.078125 11.265625 0.179688 10.859375 0.328125 L 10.859375 -2.9375 C 10.398438 -1.738281 9.75 -0.882812 8.90625 -0.375 C 8.070312 0.132812 7.210938 0.390625 6.328125 0.390625 C 5.679688 0.390625 5.117188 0.296875 4.640625 0.109375 C 4.160156 -0.078125 3.765625 -0.332031 3.453125 -0.65625 C 3.109375 -1.03125 2.867188 -1.507812 2.734375 -2.09375 C 2.609375 -2.6875 2.546875 -3.414062 2.546875 -4.28125 L 2.546875 -11.21875 C 2.546875 -12.050781 2.394531 -12.664062 2.09375 -13.0625 C 1.800781 -13.457031 1.25 -13.65625 0.4375 -13.65625 L 0.4375 -14.234375 C 1.03125 -14.179688 1.601562 -14.15625 2.15625 -14.15625 C 2.6875 -14.15625 3.195312 -14.1875 3.6875 -14.25 C 4.175781 -14.3125 4.625 -14.40625 5.03125 -14.53125 L 5.03125 -3.671875 C 5.03125 -3.097656 5.066406 -2.570312 5.140625 -2.09375 C 5.210938 -1.613281 5.394531 -1.226562 5.6875 -0.9375 C 5.988281 -0.644531 6.46875 -0.5 7.125 -0.5 C 7.84375 -0.5 8.484375 -0.71875 9.046875 -1.15625 C 9.609375 -1.601562 10.050781 -2.203125 10.375 -2.953125 C 10.695312 -3.710938 10.859375 -4.5625 10.859375 -5.5 L 10.859375 -11.21875 C 10.859375 -12.050781 10.710938 -12.664062 10.421875 -13.0625 C 10.128906 -13.457031 9.578125 -13.65625 8.765625 -13.65625 L 8.765625 -14.234375 C 9.347656 -14.179688 9.914062 -14.15625 10.46875 -14.15625 C 11.007812 -14.15625 11.523438 -14.1875 12.015625 -14.25 C 12.503906 -14.3125 12.945312 -14.40625 13.34375 -14.53125 Z M 13.34375 -14.53125 "/></g></g></g><g fill="#ffffff" fill-opacity="1"><g transform="translate(300.298634, 35.08675)"><g><path d="M 5.75 -14.625 C 6.488281 -14.625 7.113281 -14.503906 7.625 -14.265625 C 8.144531 -14.023438 8.523438 -13.800781 8.765625 -13.59375 C 9.367188 -13.101562 9.738281 -13.4375 9.875 -14.59375 L 10.5 -14.59375 C 10.46875 -14.070312 10.441406 -13.457031 10.421875 -12.75 C 10.398438 -12.039062 10.390625 -11.085938 10.390625 -9.890625 L 9.75 -9.890625 C 9.644531 -10.578125 9.457031 -11.242188 9.1875 -11.890625 C 8.925781 -12.535156 8.535156 -13.0625 8.015625 -13.46875 C 7.492188 -13.882812 6.820312 -14.09375 6 -14.09375 C 5.351562 -14.09375 4.8125 -13.910156 4.375 -13.546875 C 3.945312 -13.191406 3.734375 -12.664062 3.734375 -11.96875 C 3.734375 -11.414062 3.894531 -10.941406 4.21875 -10.546875 C 4.550781 -10.148438 4.984375 -9.78125 5.515625 -9.4375 C 6.054688 -9.09375 6.640625 -8.71875 7.265625 -8.3125 C 7.960938 -7.875 8.597656 -7.425781 9.171875 -6.96875 C 9.742188 -6.507812 10.203125 -6 10.546875 -5.4375 C 10.890625 -4.882812 11.0625 -4.234375 11.0625 -3.484375 C 11.0625 -2.640625 10.835938 -1.929688 10.390625 -1.359375 C 9.953125 -0.785156 9.375 -0.347656 8.65625 -0.046875 C 7.945312 0.242188 7.171875 0.390625 6.328125 0.390625 C 5.921875 0.390625 5.535156 0.351562 5.171875 0.28125 C 4.816406 0.21875 4.472656 0.125 4.140625 0 C 3.960938 -0.09375 3.773438 -0.203125 3.578125 -0.328125 C 3.390625 -0.460938 3.203125 -0.601562 3.015625 -0.75 C 2.828125 -0.894531 2.660156 -0.890625 2.515625 -0.734375 C 2.367188 -0.578125 2.257812 -0.269531 2.1875 0.1875 L 1.546875 0.1875 C 1.585938 -0.394531 1.613281 -1.109375 1.625 -1.953125 C 1.644531 -2.804688 1.65625 -3.929688 1.65625 -5.328125 L 2.296875 -5.328125 C 2.421875 -4.296875 2.601562 -3.394531 2.84375 -2.625 C 3.082031 -1.851562 3.457031 -1.25 3.96875 -0.8125 C 4.488281 -0.382812 5.210938 -0.171875 6.140625 -0.171875 C 6.503906 -0.171875 6.875 -0.25 7.25 -0.40625 C 7.632812 -0.570312 7.953125 -0.847656 8.203125 -1.234375 C 8.460938 -1.628906 8.59375 -2.148438 8.59375 -2.796875 C 8.59375 -3.609375 8.296875 -4.269531 7.703125 -4.78125 C 7.117188 -5.300781 6.375 -5.84375 5.46875 -6.40625 C 4.8125 -6.832031 4.191406 -7.253906 3.609375 -7.671875 C 3.023438 -8.097656 2.550781 -8.578125 2.1875 -9.109375 C 1.832031 -9.648438 1.65625 -10.300781 1.65625 -11.0625 C 1.65625 -11.882812 1.84375 -12.554688 2.21875 -13.078125 C 2.601562 -13.609375 3.109375 -14 3.734375 -14.25 C 4.359375 -14.5 5.03125 -14.625 5.75 -14.625 Z M 5.75 -14.625 "/></g></g></g><g fill="#ffffff" fill-opacity="1"><g transform="translate(312.649531, 35.08675)"><g/></g></g><g fill="#ffffff" fill-opacity="1"><g transform="translate(319.529559, 35.08675)"><g><path d="M 7.625 -21.609375 C 8.144531 -21.609375 8.601562 -21.539062 9 -21.40625 C 9.394531 -21.269531 9.738281 -21.09375 10.03125 -20.875 C 10.3125 -20.644531 10.523438 -20.382812 10.671875 -20.09375 C 10.816406 -19.800781 10.890625 -19.488281 10.890625 -19.15625 C 10.890625 -18.726562 10.75 -18.375 10.46875 -18.09375 C 10.195312 -17.820312 9.847656 -17.6875 9.421875 -17.6875 C 9.015625 -17.6875 8.660156 -17.816406 8.359375 -18.078125 C 8.054688 -18.347656 7.90625 -18.71875 7.90625 -19.1875 C 7.90625 -19.570312 8.007812 -19.882812 8.21875 -20.125 C 8.4375 -20.363281 8.71875 -20.519531 9.0625 -20.59375 C 9.007812 -20.757812 8.867188 -20.898438 8.640625 -21.015625 C 8.410156 -21.140625 8.101562 -21.203125 7.71875 -21.203125 C 7.289062 -21.203125 6.921875 -21.109375 6.609375 -20.921875 C 6.304688 -20.734375 6.078125 -20.484375 5.921875 -20.171875 C 5.691406 -19.785156 5.550781 -19.207031 5.5 -18.4375 C 5.445312 -17.675781 5.421875 -16.503906 5.421875 -14.921875 L 5.421875 -14.203125 L 8.375 -14.203125 L 8.375 -13.65625 L 5.421875 -13.65625 L 5.421875 -2.84375 C 5.421875 -1.945312 5.679688 -1.34375 6.203125 -1.03125 C 6.734375 -0.726562 7.445312 -0.578125 8.34375 -0.578125 L 8.34375 0 C 7.925781 -0.0195312 7.328125 -0.0390625 6.546875 -0.0625 C 5.773438 -0.09375 4.957031 -0.109375 4.09375 -0.109375 C 3.46875 -0.109375 2.84375 -0.09375 2.21875 -0.0625 C 1.601562 -0.0390625 1.140625 -0.0195312 0.828125 0 L 0.828125 -0.578125 C 1.585938 -0.578125 2.128906 -0.710938 2.453125 -0.984375 C 2.773438 -1.265625 2.9375 -1.796875 2.9375 -2.578125 L 2.9375 -13.65625 L 0.71875 -13.65625 L 0.71875 -14.203125 L 2.9375 -14.203125 C 2.9375 -15.296875 2.976562 -16.207031 3.0625 -16.9375 C 3.15625 -17.675781 3.300781 -18.304688 3.5 -18.828125 C 3.707031 -19.359375 3.988281 -19.828125 4.34375 -20.234375 C 4.707031 -20.660156 5.175781 -20.992188 5.75 -21.234375 C 6.320312 -21.484375 6.945312 -21.609375 7.625 -21.609375 Z M 7.625 -21.609375 "/></g></g></g><g fill="#ffffff" fill-opacity="1"><g transform="translate(328.233087, 35.08675)"><g><path d="M 7.578125 -14.625 C 8.753906 -14.625 9.8125 -14.363281 10.75 -13.84375 C 11.6875 -13.332031 12.4375 -12.519531 13 -11.40625 C 13.5625 -10.300781 13.84375 -8.867188 13.84375 -7.109375 C 13.84375 -5.335938 13.5625 -3.898438 13 -2.796875 C 12.4375 -1.703125 11.6875 -0.894531 10.75 -0.375 C 9.8125 0.132812 8.753906 0.390625 7.578125 0.390625 C 6.410156 0.390625 5.351562 0.132812 4.40625 -0.375 C 3.457031 -0.894531 2.703125 -1.703125 2.140625 -2.796875 C 1.578125 -3.898438 1.296875 -5.335938 1.296875 -7.109375 C 1.296875 -8.867188 1.578125 -10.300781 2.140625 -11.40625 C 2.703125 -12.519531 3.457031 -13.332031 4.40625 -13.84375 C 5.351562 -14.363281 6.410156 -14.625 7.578125 -14.625 Z M 7.578125 -14.0625 C 6.523438 -14.0625 5.660156 -13.519531 4.984375 -12.4375 C 4.316406 -11.351562 3.984375 -9.578125 3.984375 -7.109375 C 3.984375 -4.640625 4.316406 -2.863281 4.984375 -1.78125 C 5.660156 -0.707031 6.523438 -0.171875 7.578125 -0.171875 C 8.628906 -0.171875 9.488281 -0.707031 10.15625 -1.78125 C 10.832031 -2.863281 11.171875 -4.640625 11.171875 -7.109375 C 11.171875 -9.578125 10.832031 -11.351562 10.15625 -12.4375 C 9.488281 -13.519531 8.628906 -14.0625 7.578125 -14.0625 Z M 7.578125 -14.0625 "/></g></g></g><g fill="#ffffff" fill-opacity="1"><g transform="translate(343.374676, 35.08675)"><g><path d="M 5.25 -18.828125 L 5.25 -14.203125 L 9.34375 -14.203125 L 9.34375 -13.65625 L 5.25 -13.65625 L 5.25 -2.953125 C 5.25 -2.085938 5.40625 -1.476562 5.71875 -1.125 C 6.03125 -0.78125 6.460938 -0.609375 7.015625 -0.609375 C 7.566406 -0.609375 8.046875 -0.832031 8.453125 -1.28125 C 8.859375 -1.738281 9.210938 -2.5 9.515625 -3.5625 L 10.0625 -3.421875 C 9.875 -2.359375 9.507812 -1.457031 8.96875 -0.71875 C 8.425781 0.0195312 7.59375 0.390625 6.46875 0.390625 C 5.84375 0.390625 5.328125 0.3125 4.921875 0.15625 C 4.515625 0 4.15625 -0.226562 3.84375 -0.53125 C 3.4375 -0.945312 3.15625 -1.453125 3 -2.046875 C 2.84375 -2.640625 2.765625 -3.421875 2.765625 -4.390625 L 2.765625 -13.65625 L 0.109375 -13.65625 L 0.109375 -14.203125 L 2.765625 -14.203125 L 2.765625 -18.4375 C 3.222656 -18.457031 3.660156 -18.492188 4.078125 -18.546875 C 4.503906 -18.597656 4.894531 -18.691406 5.25 -18.828125 Z M 5.25 -18.828125 "/></g></g></g><g fill="#ffffff" fill-opacity="1"><g transform="translate(353.155921, 35.08675)"><g><path d="M 7.578125 -14.625 C 8.753906 -14.625 9.8125 -14.363281 10.75 -13.84375 C 11.6875 -13.332031 12.4375 -12.519531 13 -11.40625 C 13.5625 -10.300781 13.84375 -8.867188 13.84375 -7.109375 C 13.84375 -5.335938 13.5625 -3.898438 13 -2.796875 C 12.4375 -1.703125 11.6875 -0.894531 10.75 -0.375 C 9.8125 0.132812 8.753906 0.390625 7.578125 0.390625 C 6.410156 0.390625 5.351562 0.132812 4.40625 -0.375 C 3.457031 -0.894531 2.703125 -1.703125 2.140625 -2.796875 C 1.578125 -3.898438 1.296875 -5.335938 1.296875 -7.109375 C 1.296875 -8.867188 1.578125 -10.300781 2.140625 -11.40625 C 2.703125 -12.519531 3.457031 -13.332031 4.40625 -13.84375 C 5.351562 -14.363281 6.410156 -14.625 7.578125 -14.625 Z M 7.578125 -14.0625 C 6.523438 -14.0625 5.660156 -13.519531 4.984375 -12.4375 C 4.316406 -11.351562 3.984375 -9.578125 3.984375 -7.109375 C 3.984375 -4.640625 4.316406 -2.863281 4.984375 -1.78125 C 5.660156 -0.707031 6.523438 -0.171875 7.578125 -0.171875 C 8.628906 -0.171875 9.488281 -0.707031 10.15625 -1.78125 C 10.832031 -2.863281 11.171875 -4.640625 11.171875 -7.109375 C 11.171875 -9.578125 10.832031 -11.351562 10.15625 -12.4375 C 9.488281 -13.519531 8.628906 -14.0625 7.578125 -14.0625 Z M 7.578125 -14.0625 "/></g></g></g><g fill="#ffffff" fill-opacity="1"><g transform="translate(368.29751, 35.08675)"><g><path d="M 5.75 -14.625 C 6.488281 -14.625 7.113281 -14.503906 7.625 -14.265625 C 8.144531 -14.023438 8.523438 -13.800781 8.765625 -13.59375 C 9.367188 -13.101562 9.738281 -13.4375 9.875 -14.59375 L 10.5 -14.59375 C 10.46875 -14.070312 10.441406 -13.457031 10.421875 -12.75 C 10.398438 -12.039062 10.390625 -11.085938 10.390625 -9.890625 L 9.75 -9.890625 C 9.644531 -10.578125 9.457031 -11.242188 9.1875 -11.890625 C 8.925781 -12.535156 8.535156 -13.0625 8.015625 -13.46875 C 7.492188 -13.882812 6.820312 -14.09375 6 -14.09375 C 5.351562 -14.09375 4.8125 -13.910156 4.375 -13.546875 C 3.945312 -13.191406 3.734375 -12.664062 3.734375 -11.96875 C 3.734375 -11.414062 3.894531 -10.941406 4.21875 -10.546875 C 4.550781 -10.148438 4.984375 -9.78125 5.515625 -9.4375 C 6.054688 -9.09375 6.640625 -8.71875 7.265625 -8.3125 C 7.960938 -7.875 8.597656 -7.425781 9.171875 -6.96875 C 9.742188 -6.507812 10.203125 -6 10.546875 -5.4375 C 10.890625 -4.882812 11.0625 -4.234375 11.0625 -3.484375 C 11.0625 -2.640625 10.835938 -1.929688 10.390625 -1.359375 C 9.953125 -0.785156 9.375 -0.347656 8.65625 -0.046875 C 7.945312 0.242188 7.171875 0.390625 6.328125 0.390625 C 5.921875 0.390625 5.535156 0.351562 5.171875 0.28125 C 4.816406 0.21875 4.472656 0.125 4.140625 0 C 3.960938 -0.09375 3.773438 -0.203125 3.578125 -0.328125 C 3.390625 -0.460938 3.203125 -0.601562 3.015625 -0.75 C 2.828125 -0.894531 2.660156 -0.890625 2.515625 -0.734375 C 2.367188 -0.578125 2.257812 -0.269531 2.1875 0.1875 L 1.546875 0.1875 C 1.585938 -0.394531 1.613281 -1.109375 1.625 -1.953125 C 1.644531 -2.804688 1.65625 -3.929688 1.65625 -5.328125 L 2.296875 -5.328125 C 2.421875 -4.296875 2.601562 -3.394531 2.84375 -2.625 C 3.082031 -1.851562 3.457031 -1.25 3.96875 -0.8125 C 4.488281 -0.382812 5.210938 -0.171875 6.140625 -0.171875 C 6.503906 -0.171875 6.875 -0.25 7.25 -0.40625 C 7.632812 -0.570312 7.953125 -0.847656 8.203125 -1.234375 C 8.460938 -1.628906 8.59375 -2.148438 8.59375 -2.796875 C 8.59375 -3.609375 8.296875 -4.269531 7.703125 -4.78125 C 7.117188 -5.300781 6.375 -5.84375 5.46875 -6.40625 C 4.8125 -6.832031 4.191406 -7.253906 3.609375 -7.671875 C 3.023438 -8.097656 2.550781 -8.578125 2.1875 -9.109375 C 1.832031 -9.648438 1.65625 -10.300781 1.65625 -11.0625 C 1.65625 -11.882812 1.84375 -12.554688 2.21875 -13.078125 C 2.601562 -13.609375 3.109375 -14 3.734375 -14.25 C 4.359375 -14.5 5.03125 -14.625 5.75 -14.625 Z M 5.75 -14.625 "/></g></g></g><g fill="#ffffff" fill-opacity="1"><g transform="translate(380.648408, 35.08675)"><g/></g></g><g fill="#ffffff" fill-opacity="1"><g transform="translate(387.528436, 35.08675)"><g><path d="M 4.71875 0.1875 C 3.96875 0.1875 3.316406 0.046875 2.765625 -0.234375 C 2.210938 -0.515625 1.789062 -0.914062 1.5 -1.4375 C 1.21875 -1.957031 1.078125 -2.554688 1.078125 -3.234375 C 1.078125 -4.046875 1.265625 -4.707031 1.640625 -5.21875 C 2.023438 -5.738281 2.507812 -6.15625 3.09375 -6.46875 C 3.6875 -6.78125 4.304688 -7.039062 4.953125 -7.25 C 5.609375 -7.46875 6.234375 -7.671875 6.828125 -7.859375 C 7.421875 -8.054688 7.90625 -8.28125 8.28125 -8.53125 C 8.65625 -8.789062 8.84375 -9.132812 8.84375 -9.5625 L 8.84375 -11.28125 C 8.84375 -12.050781 8.726562 -12.640625 8.5 -13.046875 C 8.269531 -13.453125 7.960938 -13.722656 7.578125 -13.859375 C 7.191406 -13.992188 6.757812 -14.0625 6.28125 -14.0625 C 5.8125 -14.0625 5.316406 -14 4.796875 -13.875 C 4.273438 -13.75 3.851562 -13.484375 3.53125 -13.078125 C 3.882812 -13.003906 4.191406 -12.816406 4.453125 -12.515625 C 4.710938 -12.222656 4.84375 -11.847656 4.84375 -11.390625 C 4.84375 -10.929688 4.691406 -10.566406 4.390625 -10.296875 C 4.097656 -10.023438 3.722656 -9.890625 3.265625 -9.890625 C 2.722656 -9.890625 2.328125 -10.0625 2.078125 -10.40625 C 1.835938 -10.75 1.71875 -11.128906 1.71875 -11.546875 C 1.71875 -12.023438 1.835938 -12.410156 2.078125 -12.703125 C 2.316406 -13.003906 2.617188 -13.285156 2.984375 -13.546875 C 3.410156 -13.835938 3.957031 -14.085938 4.625 -14.296875 C 5.300781 -14.515625 6.0625 -14.625 6.90625 -14.625 C 7.664062 -14.625 8.3125 -14.535156 8.84375 -14.359375 C 9.375 -14.179688 9.816406 -13.925781 10.171875 -13.59375 C 10.648438 -13.15625 10.960938 -12.617188 11.109375 -11.984375 C 11.253906 -11.347656 11.328125 -10.585938 11.328125 -9.703125 L 11.328125 -2.015625 C 11.328125 -1.554688 11.394531 -1.222656 11.53125 -1.015625 C 11.675781 -0.816406 11.894531 -0.71875 12.1875 -0.71875 C 12.394531 -0.71875 12.585938 -0.765625 12.765625 -0.859375 C 12.953125 -0.953125 13.175781 -1.097656 13.4375 -1.296875 L 13.734375 -0.828125 C 13.347656 -0.535156 12.976562 -0.289062 12.625 -0.09375 C 12.28125 0.09375 11.8125 0.1875 11.21875 0.1875 C 10.6875 0.1875 10.242188 0.0976562 9.890625 -0.078125 C 9.546875 -0.265625 9.285156 -0.535156 9.109375 -0.890625 C 8.929688 -1.253906 8.84375 -1.710938 8.84375 -2.265625 C 8.34375 -1.429688 7.75 -0.8125 7.0625 -0.40625 C 6.375 -0.0078125 5.59375 0.1875 4.71875 0.1875 Z M 5.71875 -0.90625 C 6.332031 -0.90625 6.898438 -1.082031 7.421875 -1.4375 C 7.941406 -1.789062 8.414062 -2.316406 8.84375 -3.015625 L 8.84375 -8.4375 C 8.625 -8.113281 8.300781 -7.847656 7.875 -7.640625 C 7.445312 -7.429688 6.984375 -7.21875 6.484375 -7 C 5.992188 -6.789062 5.519531 -6.539062 5.0625 -6.25 C 4.613281 -5.96875 4.242188 -5.597656 3.953125 -5.140625 C 3.660156 -4.679688 3.515625 -4.082031 3.515625 -3.34375 C 3.515625 -2.601562 3.710938 -2.007812 4.109375 -1.5625 C 4.503906 -1.125 5.039062 -0.90625 5.71875 -0.90625 Z M 5.71875 -0.90625 "/></g></g></g><g fill="#ffffff" fill-opacity="1"><g transform="translate(401.288492, 35.08675)"><g><path d="M 7.71875 -14.625 C 8.300781 -14.625 8.867188 -14.546875 9.421875 -14.390625 C 9.972656 -14.242188 10.472656 -14.023438 10.921875 -13.734375 C 11.335938 -13.460938 11.65625 -13.144531 11.875 -12.78125 C 12.101562 -12.425781 12.21875 -12.035156 12.21875 -11.609375 C 12.21875 -11.109375 12.078125 -10.722656 11.796875 -10.453125 C 11.523438 -10.191406 11.175781 -10.0625 10.75 -10.0625 C 10.34375 -10.0625 9.988281 -10.179688 9.6875 -10.421875 C 9.382812 -10.660156 9.234375 -11 9.234375 -11.4375 C 9.234375 -11.863281 9.347656 -12.207031 9.578125 -12.46875 C 9.804688 -12.726562 10.078125 -12.894531 10.390625 -12.96875 C 10.203125 -13.300781 9.875 -13.578125 9.40625 -13.796875 C 8.9375 -14.015625 8.4375 -14.125 7.90625 -14.125 C 7.445312 -14.125 6.984375 -14.015625 6.515625 -13.796875 C 6.054688 -13.578125 5.632812 -13.210938 5.25 -12.703125 C 4.863281 -12.191406 4.550781 -11.5 4.3125 -10.625 C 4.070312 -9.75 3.953125 -8.660156 3.953125 -7.359375 C 3.953125 -5.734375 4.132812 -4.441406 4.5 -3.484375 C 4.875 -2.523438 5.359375 -1.835938 5.953125 -1.421875 C 6.554688 -1.003906 7.21875 -0.796875 7.9375 -0.796875 C 8.414062 -0.796875 8.898438 -0.890625 9.390625 -1.078125 C 9.890625 -1.265625 10.359375 -1.5625 10.796875 -1.96875 C 11.242188 -2.382812 11.625 -2.945312 11.9375 -3.65625 L 12.46875 -3.453125 C 12.28125 -2.867188 11.972656 -2.273438 11.546875 -1.671875 C 11.128906 -1.078125 10.578125 -0.582031 9.890625 -0.1875 C 9.210938 0.195312 8.375 0.390625 7.375 0.390625 C 6.238281 0.390625 5.207031 0.0976562 4.28125 -0.484375 C 3.363281 -1.078125 2.628906 -1.921875 2.078125 -3.015625 C 1.535156 -4.117188 1.265625 -5.425781 1.265625 -6.9375 C 1.265625 -8.445312 1.535156 -9.773438 2.078125 -10.921875 C 2.628906 -12.078125 3.390625 -12.984375 4.359375 -13.640625 C 5.335938 -14.296875 6.457031 -14.625 7.71875 -14.625 Z M 7.71875 -14.625 "/></g></g></g><g fill="#ffffff" fill-opacity="1"><g transform="translate(414.716972, 35.08675)"><g><path d="M 4.71875 0.1875 C 3.96875 0.1875 3.316406 0.046875 2.765625 -0.234375 C 2.210938 -0.515625 1.789062 -0.914062 1.5 -1.4375 C 1.21875 -1.957031 1.078125 -2.554688 1.078125 -3.234375 C 1.078125 -4.046875 1.265625 -4.707031 1.640625 -5.21875 C 2.023438 -5.738281 2.507812 -6.15625 3.09375 -6.46875 C 3.6875 -6.78125 4.304688 -7.039062 4.953125 -7.25 C 5.609375 -7.46875 6.234375 -7.671875 6.828125 -7.859375 C 7.421875 -8.054688 7.90625 -8.28125 8.28125 -8.53125 C 8.65625 -8.789062 8.84375 -9.132812 8.84375 -9.5625 L 8.84375 -11.28125 C 8.84375 -12.050781 8.726562 -12.640625 8.5 -13.046875 C 8.269531 -13.453125 7.960938 -13.722656 7.578125 -13.859375 C 7.191406 -13.992188 6.757812 -14.0625 6.28125 -14.0625 C 5.8125 -14.0625 5.316406 -14 4.796875 -13.875 C 4.273438 -13.75 3.851562 -13.484375 3.53125 -13.078125 C 3.882812 -13.003906 4.191406 -12.816406 4.453125 -12.515625 C 4.710938 -12.222656 4.84375 -11.847656 4.84375 -11.390625 C 4.84375 -10.929688 4.691406 -10.566406 4.390625 -10.296875 C 4.097656 -10.023438 3.722656 -9.890625 3.265625 -9.890625 C 2.722656 -9.890625 2.328125 -10.0625 2.078125 -10.40625 C 1.835938 -10.75 1.71875 -11.128906 1.71875 -11.546875 C 1.71875 -12.023438 1.835938 -12.410156 2.078125 -12.703125 C 2.316406 -13.003906 2.617188 -13.285156 2.984375 -13.546875 C 3.410156 -13.835938 3.957031 -14.085938 4.625 -14.296875 C 5.300781 -14.515625 6.0625 -14.625 6.90625 -14.625 C 7.664062 -14.625 8.3125 -14.535156 8.84375 -14.359375 C 9.375 -14.179688 9.816406 -13.925781 10.171875 -13.59375 C 10.648438 -13.15625 10.960938 -12.617188 11.109375 -11.984375 C 11.253906 -11.347656 11.328125 -10.585938 11.328125 -9.703125 L 11.328125 -2.015625 C 11.328125 -1.554688 11.394531 -1.222656 11.53125 -1.015625 C 11.675781 -0.816406 11.894531 -0.71875 12.1875 -0.71875 C 12.394531 -0.71875 12.585938 -0.765625 12.765625 -0.859375 C 12.953125 -0.953125 13.175781 -1.097656 13.4375 -1.296875 L 13.734375 -0.828125 C 13.347656 -0.535156 12.976562 -0.289062 12.625 -0.09375 C 12.28125 0.09375 11.8125 0.1875 11.21875 0.1875 C 10.6875 0.1875 10.242188 0.0976562 9.890625 -0.078125 C 9.546875 -0.265625 9.285156 -0.535156 9.109375 -0.890625 C 8.929688 -1.253906 8.84375 -1.710938 8.84375 -2.265625 C 8.34375 -1.429688 7.75 -0.8125 7.0625 -0.40625 C 6.375 -0.0078125 5.59375 0.1875 4.71875 0.1875 Z M 5.71875 -0.90625 C 6.332031 -0.90625 6.898438 -1.082031 7.421875 -1.4375 C 7.941406 -1.789062 8.414062 -2.316406 8.84375 -3.015625 L 8.84375 -8.4375 C 8.625 -8.113281 8.300781 -7.847656 7.875 -7.640625 C 7.445312 -7.429688 6.984375 -7.21875 6.484375 -7 C 5.992188 -6.789062 5.519531 -6.539062 5.0625 -6.25 C 4.613281 -5.96875 4.242188 -5.597656 3.953125 -5.140625 C 3.660156 -4.679688 3.515625 -4.082031 3.515625 -3.34375 C 3.515625 -2.601562 3.710938 -2.007812 4.109375 -1.5625 C 4.503906 -1.125 5.039062 -0.90625 5.71875 -0.90625 Z M 9.75 -22.46875 C 9.976562 -22.289062 10.101562 -22.050781 10.125 -21.75 C 10.15625 -21.457031 10.03125 -21.128906 9.75 -20.765625 C 9.476562 -20.410156 9.140625 -20.054688 8.734375 -19.703125 C 8.328125 -19.359375 7.851562 -18.941406 7.3125 -18.453125 C 6.769531 -17.960938 6.128906 -17.332031 5.390625 -16.5625 L 5.078125 -16.8125 C 5.648438 -17.707031 6.109375 -18.476562 6.453125 -19.125 C 6.796875 -19.769531 7.085938 -20.332031 7.328125 -20.8125 C 7.566406 -21.289062 7.820312 -21.707031 8.09375 -22.0625 C 8.375 -22.425781 8.664062 -22.625 8.96875 -22.65625 C 9.269531 -22.695312 9.53125 -22.632812 9.75 -22.46875 Z M 9.75 -22.46875 "/></g></g></g><g clip-path="url(#2eee01579d)"><path fill="#ffffff" d="M 177.953125 8.933594 C 177.667969 9 177.417969 9.144531 177.230469 9.363281 C 177.117188 9.496094 176.625 10.449219 175.816406 12.101562 L 174.574219 14.636719 L 173.191406 14.652344 L 171.808594 14.660156 L 171.808594 14.195312 C 171.808594 13.671875 171.742188 13.503906 171.433594 13.300781 C 171.273438 13.191406 171.273438 13.191406 169.367188 13.191406 C 167.46875 13.191406 167.464844 13.191406 167.308594 13.300781 C 167.035156 13.480469 166.957031 13.675781 166.9375 14.195312 L 166.917969 14.660156 L 166.128906 14.660156 C 165.566406 14.660156 165.253906 14.683594 165.054688 14.730469 C 164.125 14.976562 163.453125 15.644531 163.207031 16.578125 C 163.152344 16.804688 163.136719 17.191406 163.136719 18.671875 L 163.136719 20.488281 L 175.597656 20.488281 L 176.15625 19.929688 C 177.953125 18.128906 180.101562 17.21875 182.550781 17.21875 C 183.992188 17.222656 185.253906 17.523438 186.535156 18.167969 C 187.507812 18.648438 188.527344 19.414062 189.175781 20.132812 L 189.492188 20.488281 L 199.714844 20.488281 L 199.703125 18.625 C 199.683594 16.996094 199.675781 16.734375 199.597656 16.507812 C 199.289062 15.570312 198.585938 14.886719 197.730469 14.710938 C 197.5625 14.679688 196.347656 14.660156 193.988281 14.660156 L 190.496094 14.660156 L 189.269531 12.160156 C 188.59375 10.785156 187.980469 9.578125 187.910156 9.46875 C 187.839844 9.363281 187.691406 9.222656 187.589844 9.152344 C 187.175781 8.875 187.246094 8.878906 182.492188 8.886719 C 180.09375 8.890625 178.050781 8.910156 177.953125 8.933594 Z M 185.4375 11.09375 C 185.667969 11.207031 185.757812 11.457031 185.882812 12.320312 L 185.992188 13.082031 L 185.898438 13.242188 C 185.730469 13.527344 185.753906 13.527344 182.4375 13.515625 C 179.480469 13.5 179.441406 13.5 179.308594 13.398438 C 179.046875 13.207031 179.035156 13.136719 179.167969 12.238281 C 179.316406 11.253906 179.390625 11.101562 179.789062 11.011719 C 179.871094 10.992188 181.136719 10.988281 182.609375 11 C 184.941406 11.011719 185.304688 11.027344 185.4375 11.09375 Z M 196.503906 16.859375 C 196.816406 16.992188 196.847656 17.0625 196.859375 17.8125 C 196.875 18.359375 196.859375 18.515625 196.804688 18.636719 C 196.65625 18.917969 196.609375 18.925781 194.835938 18.925781 L 193.230469 18.925781 L 193.085938 18.800781 C 192.894531 18.644531 192.84375 18.4375 192.84375 17.820312 C 192.84375 17.144531 192.945312 16.914062 193.292969 16.824219 C 193.34375 16.816406 194.054688 16.800781 194.871094 16.796875 C 196.019531 16.792969 196.386719 16.804688 196.503906 16.859375 Z M 196.503906 16.859375 " fill-opacity="1" fill-rule="nonzero"/></g><path fill="#ffffff" d="M 181.421875 18.378906 C 179.539062 18.6875 178.003906 19.511719 176.71875 20.914062 C 174.648438 23.164062 174.085938 26.472656 175.289062 29.277344 C 176.179688 31.347656 177.980469 33.003906 180.097656 33.699219 C 181.027344 34.007812 181.382812 34.0625 182.585938 34.0625 C 183.613281 34.054688 183.707031 34.050781 184.242188 33.921875 C 185.789062 33.558594 186.964844 32.910156 188.085938 31.785156 C 188.945312 30.933594 189.503906 30.082031 189.929688 28.96875 C 190.597656 27.25 190.59375 25.136719 189.925781 23.40625 C 188.9375 20.847656 186.796875 19.03125 184.078125 18.445312 C 183.484375 18.316406 182.023438 18.28125 181.421875 18.378906 Z M 183.695312 20.910156 C 186.710938 21.574219 188.554688 24.628906 187.75 27.632812 C 187.511719 28.523438 187.023438 29.351562 186.332031 30.039062 C 185.621094 30.746094 184.84375 31.203125 183.90625 31.464844 C 183.472656 31.585938 183.375 31.597656 182.5625 31.59375 C 181.757812 31.59375 181.648438 31.578125 181.210938 31.460938 C 179.316406 30.945312 177.847656 29.46875 177.320312 27.570312 C 177.199219 27.128906 177.1875 27.035156 177.1875 26.21875 C 177.1875 25.425781 177.203125 25.300781 177.316406 24.878906 C 177.460938 24.347656 177.808594 23.582031 178.113281 23.136719 C 178.605469 22.410156 179.46875 21.679688 180.308594 21.289062 C 180.742188 21.085938 181.410156 20.894531 181.921875 20.824219 C 182.371094 20.761719 183.203125 20.800781 183.695312 20.910156 Z M 183.695312 20.910156 " fill-opacity="1" fill-rule="nonzero"/><g clip-path="url(#75157edcdd)"><path fill="#ffffff" d="M 163.148438 28.597656 L 163.160156 35.625 L 163.261719 35.886719 C 163.425781 36.320312 163.546875 36.519531 163.800781 36.800781 C 164.113281 37.144531 164.464844 37.367188 164.90625 37.519531 L 165.265625 37.636719 L 181.480469 37.628906 L 197.699219 37.613281 L 197.984375 37.511719 C 198.589844 37.277344 199.132812 36.792969 199.410156 36.238281 C 199.726562 35.589844 199.710938 35.957031 199.703125 28.414062 L 199.6875 21.601562 L 194.988281 21.585938 C 192.402344 21.582031 190.285156 21.585938 190.285156 21.589844 C 190.285156 21.601562 190.410156 21.867188 190.570312 22.183594 C 191.519531 24.097656 191.761719 26.257812 191.261719 28.328125 C 190.949219 29.609375 190.328125 30.84375 189.480469 31.882812 C 189.152344 32.28125 188.433594 32.996094 188.070312 33.273438 C 186.65625 34.382812 184.90625 35.058594 183.175781 35.175781 C 178.972656 35.449219 175.082031 32.710938 173.921875 28.652344 C 173.683594 27.824219 173.597656 27.171875 173.597656 26.195312 C 173.597656 24.511719 173.867188 23.492188 174.828125 21.609375 C 174.839844 21.589844 172.210938 21.578125 168.992188 21.578125 L 163.136719 21.578125 Z M 163.148438 28.597656 " fill-opacity="1" fill-rule="nonzero"/></g><g clip-path="url(#361abc853e)"><path fill="#ffffff" d="M 456.535156 8.34375 C 456.25 8.410156 456 8.558594 455.816406 8.777344 C 455.703125 8.910156 455.210938 9.863281 454.398438 11.515625 L 453.15625 14.050781 L 450.390625 14.074219 L 450.390625 13.609375 C 450.390625 13.082031 450.324219 12.917969 450.015625 12.714844 C 449.855469 12.605469 449.855469 12.605469 447.953125 12.605469 C 446.050781 12.605469 446.046875 12.605469 445.890625 12.714844 C 445.621094 12.894531 445.539062 13.085938 445.519531 13.609375 L 445.503906 14.074219 L 444.710938 14.074219 C 444.152344 14.074219 443.839844 14.097656 443.640625 14.144531 C 442.707031 14.390625 442.039062 15.058594 441.792969 15.992188 C 441.734375 16.21875 441.722656 16.601562 441.722656 18.085938 L 441.722656 19.902344 L 454.179688 19.902344 L 454.742188 19.339844 C 456.535156 17.542969 458.6875 16.632812 461.136719 16.632812 C 462.578125 16.636719 463.835938 16.933594 465.121094 17.578125 C 466.089844 18.0625 467.109375 18.824219 467.757812 19.546875 L 468.078125 19.902344 L 478.300781 19.902344 L 478.285156 18.039062 C 478.265625 16.410156 478.257812 16.148438 478.183594 15.921875 C 477.875 14.984375 477.167969 14.300781 476.316406 14.125 C 476.144531 14.09375 474.933594 14.074219 472.574219 14.074219 L 469.082031 14.074219 L 467.855469 11.570312 C 467.175781 10.199219 466.566406 8.988281 466.496094 8.878906 C 466.421875 8.777344 466.277344 8.632812 466.171875 8.5625 C 465.761719 8.289062 465.832031 8.292969 461.074219 8.296875 C 458.675781 8.304688 456.636719 8.320312 456.535156 8.34375 Z M 464.019531 10.503906 C 464.253906 10.621094 464.34375 10.871094 464.464844 11.734375 L 464.574219 12.496094 L 464.480469 12.65625 C 464.316406 12.941406 464.339844 12.941406 461.023438 12.925781 C 458.066406 12.914062 458.023438 12.914062 457.890625 12.8125 C 457.628906 12.617188 457.621094 12.546875 457.753906 11.652344 C 457.898438 10.667969 457.976562 10.515625 458.375 10.425781 C 458.453125 10.40625 459.71875 10.402344 461.191406 10.410156 C 463.523438 10.425781 463.886719 10.4375 464.019531 10.503906 Z M 475.089844 16.269531 C 475.402344 16.402344 475.429688 16.476562 475.445312 17.222656 C 475.457031 17.773438 475.445312 17.929688 475.386719 18.046875 C 475.238281 18.332031 475.191406 18.335938 473.421875 18.335938 L 471.816406 18.335938 L 471.667969 18.214844 C 471.476562 18.058594 471.425781 17.847656 471.425781 17.234375 C 471.425781 16.554688 471.53125 16.328125 471.875 16.238281 C 471.929688 16.230469 472.640625 16.214844 473.453125 16.210938 C 474.605469 16.203125 474.96875 16.21875 475.089844 16.269531 Z M 475.089844 16.269531 " fill-opacity="1" fill-rule="nonzero"/></g><path fill="#ffffff" d="M 460.003906 17.792969 C 458.121094 18.101562 456.589844 18.925781 455.304688 20.328125 C 453.234375 22.578125 452.671875 25.882812 453.875 28.6875 C 454.765625 30.757812 456.5625 32.417969 458.683594 33.113281 C 459.609375 33.421875 459.964844 33.472656 461.167969 33.472656 C 462.199219 33.46875 462.292969 33.464844 462.828125 33.335938 C 464.371094 32.972656 465.546875 32.324219 466.667969 31.199219 C 467.527344 30.347656 468.085938 29.492188 468.511719 28.378906 C 469.179688 26.660156 469.175781 24.546875 468.507812 22.820312 C 467.523438 20.261719 465.382812 18.445312 462.660156 17.859375 C 462.070312 17.730469 460.605469 17.691406 460.003906 17.792969 Z M 462.277344 20.320312 C 465.296875 20.984375 467.136719 24.042969 466.332031 27.042969 C 466.097656 27.933594 465.609375 28.765625 464.917969 29.453125 C 464.207031 30.15625 463.429688 30.617188 462.492188 30.878906 C 462.054688 31 461.960938 31.011719 461.144531 31.003906 C 460.339844 31.003906 460.230469 30.992188 459.796875 30.871094 C 457.898438 30.355469 456.429688 28.882812 455.90625 26.984375 C 455.78125 26.542969 455.773438 26.449219 455.773438 25.632812 C 455.773438 24.835938 455.789062 24.714844 455.902344 24.292969 C 456.042969 23.761719 456.394531 22.992188 456.695312 22.546875 C 457.191406 21.824219 458.050781 21.09375 458.890625 20.699219 C 459.328125 20.496094 459.996094 20.308594 460.507812 20.238281 C 460.957031 20.175781 461.785156 20.214844 462.277344 20.320312 Z M 462.277344 20.320312 " fill-opacity="1" fill-rule="nonzero"/><g clip-path="url(#b583350367)"><path fill="#ffffff" d="M 441.730469 28.011719 L 441.746094 35.035156 L 441.84375 35.296875 C 442.011719 35.734375 442.128906 35.933594 442.382812 36.210938 C 442.699219 36.558594 443.046875 36.78125 443.488281 36.933594 L 443.847656 37.050781 L 460.066406 37.042969 L 476.28125 37.027344 L 476.566406 36.921875 C 477.171875 36.691406 477.71875 36.207031 477.992188 35.652344 C 478.308594 35.003906 478.296875 35.367188 478.285156 27.828125 L 478.273438 21.015625 L 473.574219 21 C 470.984375 20.996094 468.867188 21 468.867188 21.003906 C 468.867188 21.015625 468.996094 21.277344 469.152344 21.597656 C 470.105469 23.511719 470.347656 25.671875 469.84375 27.742188 C 469.53125 29.019531 468.910156 30.257812 468.0625 31.292969 C 467.734375 31.691406 467.015625 32.40625 466.65625 32.6875 C 465.238281 33.796875 463.492188 34.472656 461.761719 34.585938 C 457.554688 34.863281 453.664062 32.125 452.503906 28.0625 C 452.265625 27.238281 452.183594 26.585938 452.183594 25.609375 C 452.183594 23.921875 452.453125 22.902344 453.414062 21.023438 C 453.421875 21.003906 450.792969 20.988281 447.578125 20.988281 L 441.722656 20.988281 Z M 441.730469 28.011719 " fill-opacity="1" fill-rule="nonzero"/></g></svg>